<?xml version="1.0" encoding="UTF-8" standalone="no"?>
<svg
   xmlns:dc="http://purl.org/dc/elements/1.1/"
   xmlns:cc="http://creativecommons.org/ns#"
   xmlns:rdf="http://www.w3.org/1999/02/22-rdf-syntax-ns#"
   xmlns:svg="http://www.w3.org/2000/svg"
   xmlns="http://www.w3.org/2000/svg"
   xmlns:sodipodi="http://sodipodi.sourceforge.net/DTD/sodipodi-0.dtd"
   xmlns:inkscape="http://www.inkscape.org/namespaces/inkscape"
   height="600"
   viewBox="0 0 73.710958 64.453111"
   width="629"
   version="1.1"
   id="svg3813"
   sodipodi:docname="beerapi.svg"
   inkscape:version="0.92.3 (2405546, 2018-03-11)">
  <metadata
     id="metadata3819">
    <rdf:RDF>
      <cc:Work
         rdf:about="">
        <dc:format>image/svg+xml</dc:format>
        <dc:type
           rdf:resource="http://purl.org/dc/dcmitype/StillImage" />
        <dc:title></dc:title>
      </cc:Work>
    </rdf:RDF>
  </metadata>
  <defs
     id="defs3817" />
  <sodipodi:namedview
     pagecolor="#ffffff"
     bordercolor="#666666"
     borderopacity="1"
     objecttolerance="10"
     gridtolerance="10"
     guidetolerance="10"
     inkscape:pageopacity="0"
     inkscape:pageshadow="2"
     inkscape:window-width="1299"
     inkscape:window-height="713"
     id="namedview3815"
     showgrid="false"
     inkscape:zoom="0.73472814"
     inkscape:cx="280.71578"
     inkscape:cy="369.42063"
     inkscape:window-x="67"
     inkscape:window-y="27"
     inkscape:window-maximized="1"
     inkscape:current-layer="svg3813" />
  <circle
     style="fill:#ffffff;stroke:#000000;stroke-width:1.3205863;stroke-miterlimit:4;stroke-dasharray:none"
     id="path4754"
     cx="36.983677"
     cy="32.826145"
     r="32.420792" />
  <g
     id="Page-1"
     transform="matrix(0.48500752,0,0,0.53862446,8.1678837,17.007163)"
     style="fill:none;fill-rule:evenodd">
    <g
       id="002---API"
       style="fill:#000000;fill-rule:nonzero">
      <path
         id="Shape"
         d="M 50.5,35 H 13 C 5.8202982,35 0,29.179702 0,22 0,14.820298 5.8202982,9 13,9 c 0.085,0 0.1694,5e-4 0.2529,0.0024 2.3847,-5.4676346 7.78275,-9.00241816 13.7478,-9.00241816 5.96505,0 11.3631,3.53478356 13.7478,9.00241816 4.526974,0.1020752 8.574084,2.847301 10.3428,7.0157 5.12377,0.316728 9.069103,4.646629 8.909266,9.77769 C 59.84073,30.926851 55.633549,35.002795 50.5,35 Z M 13,11 C 6.9248677,11 2,15.924868 2,22 2,28.075132 6.9248677,33 13,33 H 50.5 C 54.642136,33 58,29.642136 58,25.5 58,21.357864 54.642136,18 50.5,18 h -0.1 c -0.423903,-1.1e-5 -0.80174,-0.267291 -0.9429,-0.667 -1.346272,-3.818104 -4.966799,-6.361453 -9.0152,-6.333 -0.0977,0 -0.1948,5e-4 -0.292,0.0073 -0.438709,0.02791 -0.845002,-0.231421 -1.0044,-0.6411 C 37.22244,5.3233581 32.383122,1.9935725 26.986051,1.9996581 21.588979,2.0057436 16.757183,5.3464341 14.8455,10.3936 14.685981,10.817765 14.260725,11.08123 13.8099,11.0352 13.540696,11.009876 13.270386,10.998127 13,11 Z"
         inkscape:connector-curvature="0" />
      <path
         id="path3787"
         d="M 6.7705,28 C 6.4686492,28.000543 6.1828143,27.864263 5.9932,27.6294 4.2607488,25.484829 3.6101817,22.662956 4.2288325,19.976352 4.8474832,17.289748 6.6666884,15.036596 9.1626,13.8657 c 0.4994311,-0.235964 1.095586,-0.02238 1.33155,0.47705 0.235964,0.499431 0.02238,1.095586 -0.47705,1.33155 C 7.5722215,16.834005 6.0099936,19.294035 6,22 c -0.00614,1.592059 0.540617,3.136872 1.5469,4.3706 0.2425537,0.299466 0.2914435,0.711661 0.1256727,1.059557 C 7.5068018,27.778054 7.1558726,27.999737 6.7705,28 Z"
         inkscape:connector-curvature="0" />
      <path
         id="path3789"
         d="M 17,29.0005 C 16.67859,29.000043 16.376941,28.845308 16.189071,28.584523 16.0012,28.323738 15.949952,27.988613 16.0513,27.6836 l 4,-12 c 0.174743,-0.523953 0.741148,-0.807043 1.2651,-0.6323 0.523953,0.174743 0.807043,0.741147 0.6323,1.2651 l -4,12 C 17.812698,28.724877 17.430524,29.00046 17,29.0005 Z"
         inkscape:connector-curvature="0" />
      <path
         id="path3791"
         d="m 25,29.0005 c -0.430524,-4e-5 -0.812698,-0.275623 -0.9487,-0.6841 l -4,-12 c -0.174743,-0.523953 0.108348,-1.090357 0.6323,-1.2651 0.523953,-0.174743 1.090357,0.108347 1.2651,0.6323 l 4,12 c 0.101348,0.305013 0.0501,0.640138 -0.137771,0.900923 C 25.623059,28.845308 25.32141,29.000043 25,29.0005 Z"
         inkscape:connector-curvature="0" />
      <path
         id="path3793"
         d="m 23.33,24 h -4.66 c -0.552285,0 -1,-0.447715 -1,-1 0,-0.552285 0.447715,-1 1,-1 h 4.66 c 0.552285,0 1,0.447715 1,1 0,0.552285 -0.447715,1 -1,1 z"
         inkscape:connector-curvature="0" />
      <path
         id="path3795"
         d="m 28,29 c -0.552285,0 -1,-0.447715 -1,-1 V 16 c 0,-0.552285 0.447715,-1 1,-1 0.552285,0 1,0.447715 1,1 v 12 c 0,0.552285 -0.447715,1 -1,1 z"
         inkscape:connector-curvature="0" />
      <path
         id="path3797"
         d="m 32,23 h -4 c -0.552285,0 -1,-0.447715 -1,-1 v -6 c 0,-0.552285 0.447715,-1 1,-1 h 4 c 2.209139,0 4,1.790861 4,4 0,2.209139 -1.790861,4 -4,4 z m -3,-2 h 3 c 1.104569,0 2,-0.895431 2,-2 0,-1.10457 -0.895431,-2 -2,-2 h -3 z"
         inkscape:connector-curvature="0" />
      <path
         id="path3799"
         d="m 40,29 c -0.552285,0 -1,-0.447715 -1,-1 V 16 c 0,-0.552285 0.447715,-1 1,-1 0.552285,0 1,0.447715 1,1 v 12 c 0,0.552285 -0.447715,1 -1,1 z"
         inkscape:connector-curvature="0" />
      <path
         id="path3801"
         d="m 43,17 h -6 c -0.552285,0 -1,-0.447715 -1,-1 0,-0.552285 0.447715,-1 1,-1 h 6 c 0.552285,0 1,0.447715 1,1 0,0.552285 -0.447715,1 -1,1 z"
         inkscape:connector-curvature="0" />
      <path
         id="path3803"
         d="m 43,29 h -6 c -0.552285,0 -1,-0.447715 -1,-1 0,-0.552285 0.447715,-1 1,-1 h 6 c 0.552285,0 1,0.447715 1,1 0,0.552285 -0.447715,1 -1,1 z"
         inkscape:connector-curvature="0" />
      <path
         id="path3805"
         d="m 24.0464,55.0005 c -0.252182,-2.49e-4 -0.501629,-0.05226 -0.7329,-0.1528 l -6.2564,-2.5938 c -0.46114,-0.190421 -0.826629,-0.557856 -1.0146,-1.02 -0.185726,-0.456036 -0.177637,-0.968058 0.0224,-1.418 l 1.49,-3.602 c -1.466276,-1.115175 -2.774591,-2.423994 -3.8892,-3.8907 l -3.6343,1.501 c -0.4526915,0.189182 -0.9624531,0.188317 -1.4145,-0.0024 -0.4517901,-0.186438 -0.8113447,-0.544231 -1,-0.9951 L 5.0259,36.541 c -0.3925148,-0.932207 0.040643,-2.006483 0.97,-2.4057 l 3.5435,-1.4605 c 0.3304707,-0.136065 0.708428,-0.08549 0.991498,0.132674 0.283071,0.218164 0.42825,0.570772 0.38085,0.925 -0.0474,0.354228 -0.280177,0.656261 -0.610648,0.792326 l -3.3711,1.3883 2.4765,6.0054 4.2212,-1.7432 c 0.432637,-0.17819 0.930996,-0.03284 1.2,0.35 1.232753,1.760822 2.764315,3.292181 4.5253,4.5247 0.384392,0.268656 0.530221,0.768491 0.3506,1.2017 l -1.7422,4.2119 6.001,2.4878 1.7437,-4.2144 c 0.179394,-0.433795 0.636377,-0.684416 1.0986,-0.6025 2.112859,0.376443 4.275886,0.373463 6.3877,-0.0088 0.462412,-0.08248 0.920092,0.167168 1.1011,0.6006 l 1.7529,4.2216 5.9927,-2.4848 -1.7432,-4.2222 c -0.17927,-0.434509 -0.03173,-0.93522 0.3545,-1.2031 1.761565,-1.226309 3.292457,-2.754391 4.522,-4.5137 0.268826,-0.383133 0.767738,-0.528067 1.2,-0.3486 l 4.22,1.7461 2.49,-6.0044 -2.4072,-1.002 C 50.223558,34.746188 49.95704,34.27875 50.041628,33.803998 50.126216,33.329245 50.537778,32.982622 51.02,32.98 c 0.135075,-9.8e-5 0.268896,0.02591 0.3941,0.0766 l 2.57,1.07 c 0.457326,0.186783 0.819618,0.550662 1.0044,1.0088 0.185156,0.45321 0.183934,0.961186 -0.0034,1.4135 l -2.6016,6.274 c -0.187697,0.458766 -0.552068,0.82273 -1.011044,1.009913 C 50.91348,44.019996 50.398497,44.014658 49.9435,43.818 l -3.61,-1.4942 c -1.112643,1.465757 -2.420684,2.772317 -3.8877,3.8833 l 1.499,3.6314 c 0.192767,0.444311 0.197349,0.947755 0.0127,1.3955 -0.188371,0.463402 -0.555248,0.831539 -1.018,1.0215 l -6.2661,2.5981 c -0.453825,0.190103 -0.96484,0.190759 -1.419152,0.0018 -0.454312,-0.188917 -0.814162,-0.551746 -0.999348,-1.0076 l -1.5054,-3.626 c -1.823031,0.25429 -3.672355,0.256914 -5.4961,0.0078 l -1.499,3.6226 c -0.284126,0.693231 -0.958305,1.146658 -1.7075,1.1484 z M 23.9053,53.09 v 10e-4 z m 0.1865,-0.0844 h 0.001 z m 18.01,-2.3892 0.0029,0.0073 z m -24.1968,-0.0171 -0.0015,0.003 z m 24.2719,-0.1929 -9e-4,5e-4 z M 17.8185,50.405 h 0.001 z m 32.7167,-8.345 -5e-4,9e-4 z M 9.2646,41.977 H 9.2632 Z m 41.4566,-0.0015 10e-4,5e-4 z m 2.4985,-6.001 h 0.0015 z M 6.8726,35.7729 v 0.0015 z"
         inkscape:connector-curvature="0" />
      <path
         id="path3807"
         d="m 30,44 c -6.208115,-0.02466 -11.766465,-3.852142 -14.0039,-9.6431 -0.131262,-0.334563 -0.0729,-0.713832 0.152879,-0.993452 0.225776,-0.279619 0.584236,-0.416579 0.938944,-0.358751 0.354709,0.05783 0.651105,0.301551 0.776377,0.638403 1.921218,5.032423 6.749017,8.356979 12.1357,8.356979 5.386683,0 10.214482,-3.324556 12.1357,-8.356979 0.125272,-0.336852 0.421668,-0.580574 0.776376,-0.638403 0.354709,-0.05783 0.713169,0.07913 0.938945,0.358751 0.225776,0.27962 0.284141,0.658889 0.152879,0.993452 C 41.766465,40.147858 36.208116,43.975343 30,44 Z"
         inkscape:connector-curvature="0" />
      <path
         id="path3809"
         d="M 19,12.0005 C 18.67859,12.000043 18.376941,11.845308 18.189071,11.584523 18.0012,11.323738 17.949952,10.988613 18.0513,10.6836 20.2539,4.0762 25.7666,4 26,4 26.552285,3.9986469 27.001097,4.4452653 27.00245,4.99755 27.003803,5.5498347 26.557185,5.9986469 26.0049,6 25.811,6.0029 21.6782,6.1274 19.9487,11.3164 19.812698,11.724878 19.430523,12.00046 19,12.0005 Z"
         inkscape:connector-curvature="0" />
    </g>
  </g>
  <g
     id="g4417"
     transform="matrix(0.06422568,0,0,0.0541793,36.125328,17.908249)">
    <g
       id="g4333">
      <g
         id="g4331">
        <path
           id="path4329"
           d="m 286,451.29 c -5.52,0 -10,4.48 -10,10 0,5.52 4.48,10 10,10 5.52,0 10,-4.48 10,-10 0,-5.52 -4.48,-10 -10,-10 z"
           inkscape:connector-curvature="0" />
      </g>
    </g>
    <g
       id="g4339">
      <g
         id="g4337">
        <path
           id="path4335"
           d="m 145.5,200.29 c -5.523,0 -10,4.477 -10,10 v 191 c 0,5.523 4.477,10 10,10 5.523,0 10,-4.477 10,-10 v -191 c 0,-5.523 -4.477,-10 -10,-10 z"
           inkscape:connector-curvature="0" />
      </g>
    </g>
    <g
       id="g4345">
      <g
         id="g4343">
        <path
           id="path4341"
           d="m 225.5,200.29 c -5.523,0 -10,4.477 -10,10 v 191 c 0,5.523 4.477,10 10,10 5.523,0 10,-4.477 10,-10 v -191 c 0,-5.523 -4.477,-10 -10,-10 z"
           inkscape:connector-curvature="0" />
      </g>
    </g>
    <g
       id="g4351">
      <g
         id="g4349">
        <path
           id="path4347"
           d="m 426.5,161 h -50 V 130.741 C 392.175,118.99 399.625,99.128 395.207,79.517 391.074,61.127 375.894,46.119 357.439,42.172 347.628,40.067 337.747,40.812 328.744,44.235 319.716,30.002 303.862,21 286.5,21 279.956,21 273.561,22.269 267.648,24.711 250.91,8.922 228.843,0 206,0 175.784,0 147.604,15.393 130.97,40.579 78.7,37.687 35.5,79.156 35.5,130.29 v 120 c 0,16.542 13.682,30 30.5,30 3.689,0 7.224,-0.671 10.5,-1.893 V 462 c 0,27.57 22.43,50 50,50 h 200 c 27.57,0 50,-22.43 50,-50 v -30 h 50 c 27.57,0 50,-22.43 50,-50 V 211 c 0,-27.57 -22.43,-50 -50,-50 z m -70,291 h -30.51 c -5.523,0 -10,4.477 -10,10 0,5.523 4.477,9.9 10,9.9 h 28.79 C 350.652,483.539 339.536,492 326.5,492 h -200 c -13.036,0 -24.152,-8.361 -28.28,-20 h 147.79 c 5.523,0 10,-4.477 10,-10 0,-5.523 -4.477,-10 -10,-10 H 96.5 V 250.07 179.506 c 22.463,-3.391 41.914,-17.538 52.14,-38.505 2.086,0 3.924,0.722 5.309,2.081 11.286,11.098 26.22,17.209 42.051,17.209 16.408,0 31.725,-6.495 43.135,-18.295 0.61,-0.632 1.473,-0.995 2.365,-0.995 15.567,0 25.753,3.325 30.277,9.881 3.729,5.405 3.726,12.915 3.723,18.95 v 40.459 c 0,13.036 8.361,24.152 20,28.28 v 162.72 c 0,5.523 4.477,10 10,10 5.523,0 10,-4.477 10,-10 V 238.57 c 11.639,-4.128 20,-15.243 20,-28.28 v -70.464 c 7.005,1.398 14.154,1.407 21,0.007 z M 330.033,116.947 c -3.1,-1.577 -6.796,-1.43 -9.762,0.389 -2.965,1.818 -4.772,5.046 -4.772,8.524 v 84.43 c 0,5.514 -4.486,10 -10,10 -5.514,0 -10,-4.486 -10,-10 v -40.452 c 0.003,-7.876 0.008,-19.779 -7.261,-30.315 C 279.759,127.232 264.034,121 241.5,121 c -6.29,0 -12.396,2.589 -16.749,7.099 -7.602,7.862 -17.813,12.191 -28.751,12.191 -10.553,0 -20.507,-4.073 -28.035,-11.477 C 162.832,123.774 155.969,121 148.64,121 c -7.579,0 -14.623,4.397 -17.946,11.202 -8.382,17.164 -25.35,27.927 -44.28,28.089 -5.489,0.047 -9.915,4.51 -9.915,10 v 79.525 C 76.147,255.705 71.568,260.29 66,260.29 c -5.691,0 -10.5,-4.58 -10.5,-10 v -120 c 0,-38.596 31.582,-69.852 70.407,-69.852 3.017,0 6.05,0.192 9.081,0.581 4.045,0.519 7.998,-1.471 9.993,-5.026 C 157.437,33.792 180.818,20 206,20 c 19.73,0 38.752,8.615 52.187,23.637 3.256,3.642 8.668,4.398 12.799,1.785 C 275.559,42.529 280.924,41 286.5,41 c 12.73,0 24.108,8.061 28.313,20.057 1.023,2.92 3.341,5.203 6.277,6.181 2.935,0.978 6.159,0.542 8.729,-1.182 6.816,-4.57 15.134,-6.107 23.429,-4.327 10.8,2.31 20.03,11.428 22.446,22.179 5.692,25.264 -20.205,45.988 -45.661,33.039 z M 376.5,221 h 40 v 151 h -40 z m 80,161 c 0,16.542 -13.458,30 -30,30 h -50 v -20 h 50 c 5.523,0 10,-4.477 10,-10 V 211 c 0,-5.523 -4.477,-10 -10,-10 h -50 v -20 h 50 c 16.542,0 30,13.458 30,30 z"
           inkscape:connector-curvature="0" />
      </g>
    </g>
    <g
       id="g4353" />
    <g
       id="g4355" />
    <g
       id="g4357" />
    <g
       id="g4359" />
    <g
       id="g4361" />
    <g
       id="g4363" />
    <g
       id="g4365" />
    <g
       id="g4367" />
    <g
       id="g4369" />
    <g
       id="g4371" />
    <g
       id="g4373" />
    <g
       id="g4375" />
    <g
       id="g4377" />
    <g
       id="g4379" />
    <g
       id="g4381" />
  </g>
</svg>
