<?xml version="1.0" encoding="UTF-8" standalone="no"?>
<svg
   xmlns:dc="http://purl.org/dc/elements/1.1/"
   xmlns:cc="http://creativecommons.org/ns#"
   xmlns:rdf="http://www.w3.org/1999/02/22-rdf-syntax-ns#"
   xmlns:svg="http://www.w3.org/2000/svg"
   xmlns="http://www.w3.org/2000/svg"
   xmlns:sodipodi="http://sodipodi.sourceforge.net/DTD/sodipodi-0.dtd"
   xmlns:inkscape="http://www.inkscape.org/namespaces/inkscape"
   height="600"
   viewBox="0 0 73.710944 64.453072"
   width="629"
   version="1.1"
   id="svg3813"
   sodipodi:docname="beerdb.svg"
   inkscape:version="0.92.3 (2405546, 2018-03-11)">
  <metadata
     id="metadata3819">
    <rdf:RDF>
      <cc:Work
         rdf:about="">
        <dc:format>image/svg+xml</dc:format>
        <dc:type
           rdf:resource="http://purl.org/dc/dcmitype/StillImage" />
        <dc:title></dc:title>
      </cc:Work>
    </rdf:RDF>
  </metadata>
  <defs
     id="defs3817" />
  <sodipodi:namedview
     pagecolor="#ffffff"
     bordercolor="#666666"
     borderopacity="1"
     objecttolerance="10"
     gridtolerance="10"
     guidetolerance="10"
     inkscape:pageopacity="0"
     inkscape:pageshadow="2"
     inkscape:window-width="1299"
     inkscape:window-height="713"
     id="namedview3815"
     showgrid="false"
     inkscape:zoom="1.0390625"
     inkscape:cx="256"
     inkscape:cy="142.97744"
     inkscape:window-x="67"
     inkscape:window-y="27"
     inkscape:window-maximized="1"
     inkscape:current-layer="svg3813" />
  <circle
     style="fill:#ffffff;stroke:#000000;stroke-width:1.32058609;stroke-miterlimit:4;stroke-dasharray:none"
     id="path4754"
     cx="37.747772"
     cy="31.291254"
     r="32.420788" />
  <g
     id="g4417"
     transform="matrix(0.06422568,0,0,0.0541793,36.594078,16.267594)">
    <g
       id="g4333">
      <g
         id="g4331">
        <path
           id="path4329"
           d="m 286,451.29 c -5.52,0 -10,4.48 -10,10 0,5.52 4.48,10 10,10 5.52,0 10,-4.48 10,-10 0,-5.52 -4.48,-10 -10,-10 z"
           inkscape:connector-curvature="0" />
      </g>
    </g>
    <g
       id="g4339">
      <g
         id="g4337">
        <path
           id="path4335"
           d="m 145.5,200.29 c -5.523,0 -10,4.477 -10,10 v 191 c 0,5.523 4.477,10 10,10 5.523,0 10,-4.477 10,-10 v -191 c 0,-5.523 -4.477,-10 -10,-10 z"
           inkscape:connector-curvature="0" />
      </g>
    </g>
    <g
       id="g4345">
      <g
         id="g4343">
        <path
           id="path4341"
           d="m 225.5,200.29 c -5.523,0 -10,4.477 -10,10 v 191 c 0,5.523 4.477,10 10,10 5.523,0 10,-4.477 10,-10 v -191 c 0,-5.523 -4.477,-10 -10,-10 z"
           inkscape:connector-curvature="0" />
      </g>
    </g>
    <g
       id="g4351">
      <g
         id="g4349">
        <path
           id="path4347"
           d="m 426.5,161 h -50 V 130.741 C 392.175,118.99 399.625,99.128 395.207,79.517 391.074,61.127 375.894,46.119 357.439,42.172 347.628,40.067 337.747,40.812 328.744,44.235 319.716,30.002 303.862,21 286.5,21 279.956,21 273.561,22.269 267.648,24.711 250.91,8.922 228.843,0 206,0 175.784,0 147.604,15.393 130.97,40.579 78.7,37.687 35.5,79.156 35.5,130.29 v 120 c 0,16.542 13.682,30 30.5,30 3.689,0 7.224,-0.671 10.5,-1.893 V 462 c 0,27.57 22.43,50 50,50 h 200 c 27.57,0 50,-22.43 50,-50 v -30 h 50 c 27.57,0 50,-22.43 50,-50 V 211 c 0,-27.57 -22.43,-50 -50,-50 z m -70,291 h -30.51 c -5.523,0 -10,4.477 -10,10 0,5.523 4.477,9.9 10,9.9 h 28.79 C 350.652,483.539 339.536,492 326.5,492 h -200 c -13.036,0 -24.152,-8.361 -28.28,-20 h 147.79 c 5.523,0 10,-4.477 10,-10 0,-5.523 -4.477,-10 -10,-10 H 96.5 V 250.07 179.506 c 22.463,-3.391 41.914,-17.538 52.14,-38.505 2.086,0 3.924,0.722 5.309,2.081 11.286,11.098 26.22,17.209 42.051,17.209 16.408,0 31.725,-6.495 43.135,-18.295 0.61,-0.632 1.473,-0.995 2.365,-0.995 15.567,0 25.753,3.325 30.277,9.881 3.729,5.405 3.726,12.915 3.723,18.95 v 40.459 c 0,13.036 8.361,24.152 20,28.28 v 162.72 c 0,5.523 4.477,10 10,10 5.523,0 10,-4.477 10,-10 V 238.57 c 11.639,-4.128 20,-15.243 20,-28.28 v -70.464 c 7.005,1.398 14.154,1.407 21,0.007 z M 330.033,116.947 c -3.1,-1.577 -6.796,-1.43 -9.762,0.389 -2.965,1.818 -4.772,5.046 -4.772,8.524 v 84.43 c 0,5.514 -4.486,10 -10,10 -5.514,0 -10,-4.486 -10,-10 v -40.452 c 0.003,-7.876 0.008,-19.779 -7.261,-30.315 C 279.759,127.232 264.034,121 241.5,121 c -6.29,0 -12.396,2.589 -16.749,7.099 -7.602,7.862 -17.813,12.191 -28.751,12.191 -10.553,0 -20.507,-4.073 -28.035,-11.477 C 162.832,123.774 155.969,121 148.64,121 c -7.579,0 -14.623,4.397 -17.946,11.202 -8.382,17.164 -25.35,27.927 -44.28,28.089 -5.489,0.047 -9.915,4.51 -9.915,10 v 79.525 C 76.147,255.705 71.568,260.29 66,260.29 c -5.691,0 -10.5,-4.58 -10.5,-10 v -120 c 0,-38.596 31.582,-69.852 70.407,-69.852 3.017,0 6.05,0.192 9.081,0.581 4.045,0.519 7.998,-1.471 9.993,-5.026 C 157.437,33.792 180.818,20 206,20 c 19.73,0 38.752,8.615 52.187,23.637 3.256,3.642 8.668,4.398 12.799,1.785 C 275.559,42.529 280.924,41 286.5,41 c 12.73,0 24.108,8.061 28.313,20.057 1.023,2.92 3.341,5.203 6.277,6.181 2.935,0.978 6.159,0.542 8.729,-1.182 6.816,-4.57 15.134,-6.107 23.429,-4.327 10.8,2.31 20.03,11.428 22.446,22.179 5.692,25.264 -20.205,45.988 -45.661,33.039 z M 376.5,221 h 40 v 151 h -40 z m 80,161 c 0,16.542 -13.458,30 -30,30 h -50 v -20 h 50 c 5.523,0 10,-4.477 10,-10 V 211 c 0,-5.523 -4.477,-10 -10,-10 h -50 v -20 h 50 c 16.542,0 30,13.458 30,30 z"
           inkscape:connector-curvature="0" />
      </g>
    </g>
    <g
       id="g4353" />
    <g
       id="g4355" />
    <g
       id="g4357" />
    <g
       id="g4359" />
    <g
       id="g4361" />
    <g
       id="g4363" />
    <g
       id="g4365" />
    <g
       id="g4367" />
    <g
       id="g4369" />
    <g
       id="g4371" />
    <g
       id="g4373" />
    <g
       id="g4375" />
    <g
       id="g4377" />
    <g
       id="g4379" />
    <g
       id="g4381" />
  </g>
  <g
     id="g4621"
     transform="matrix(0.45327777,0,0,0.53960723,11.00232,15.659058)">
    <path
       id="path4566"
       d="M 52.354,8.51 C 51.196,4.22 42.577,0 27.5,0 12.423,0 3.803,4.22 2.646,8.51 2.562,8.657 2.5,8.818 2.5,9 V 9.5 21 21.5 22 33 33.5 34 46 c 0,0.162 0.043,0.315 0.117,0.451 C 3.798,51.346 14.364,55 27.5,55 40.606,55 51.155,51.361 52.375,46.484 52.455,46.341 52.5,46.176 52.5,46 V 34 33.5 33 22 21.5 21 9.5 9 c 0,-0.182 -0.062,-0.343 -0.146,-0.49 z m -1.933,25.475 c -0.028,0.121 -0.067,0.241 -0.116,0.363 -0.04,0.099 -0.089,0.198 -0.143,0.297 -0.067,0.123 -0.142,0.246 -0.231,0.369 -0.066,0.093 -0.141,0.185 -0.219,0.277 -0.111,0.131 -0.229,0.262 -0.363,0.392 -0.081,0.079 -0.17,0.157 -0.26,0.236 -0.164,0.143 -0.335,0.285 -0.526,0.426 -0.082,0.061 -0.17,0.12 -0.257,0.18 -0.226,0.156 -0.462,0.311 -0.721,0.463 -0.068,0.041 -0.141,0.08 -0.212,0.12 -0.298,0.168 -0.609,0.335 -0.945,0.497 -0.043,0.021 -0.088,0.041 -0.132,0.061 -0.375,0.177 -0.767,0.351 -1.186,0.519 -0.012,0.005 -0.024,0.009 -0.036,0.014 -2.271,0.907 -5.176,1.67 -8.561,2.17 -0.017,0.002 -0.034,0.004 -0.051,0.007 -0.658,0.097 -1.333,0.183 -2.026,0.259 -0.113,0.012 -0.232,0.02 -0.346,0.032 -0.605,0.063 -1.217,0.121 -1.847,0.167 -0.288,0.021 -0.59,0.031 -0.883,0.049 -0.474,0.028 -0.943,0.059 -1.429,0.076 C 29.137,40.984 28.327,41 27.5,41 26.673,41 25.863,40.984 25.068,40.956 24.582,40.939 24.113,40.907 23.639,40.88 23.346,40.863 23.044,40.852 22.756,40.831 22.126,40.785 21.514,40.727 20.909,40.664 20.795,40.652 20.676,40.644 20.563,40.632 19.87,40.556 19.195,40.469 18.537,40.373 18.52,40.371 18.503,40.369 18.486,40.366 15.101,39.866 12.196,39.103 9.925,38.196 9.913,38.192 9.901,38.187 9.889,38.182 9.47,38.014 9.077,37.84 8.703,37.663 8.66,37.642 8.614,37.622 8.571,37.602 8.235,37.44 7.924,37.274 7.626,37.105 7.556,37.065 7.482,37.026 7.414,36.985 7.155,36.833 6.919,36.678 6.693,36.522 6.607,36.462 6.518,36.403 6.436,36.342 6.245,36.201 6.074,36.059 5.91,35.916 5.821,35.838 5.731,35.76 5.65,35.68 5.516,35.55 5.398,35.42 5.287,35.288 5.209,35.196 5.134,35.104 5.068,35.011 4.98,34.888 4.905,34.765 4.837,34.642 4.783,34.543 4.735,34.444 4.694,34.345 4.645,34.224 4.606,34.103 4.578,33.982 4.541,33.823 4.5,33.661 4.5,33.5 4.5,33.387 4.513,33.274 4.531,33.162 4.556,33.011 4.542,32.86 4.5,32.717 v -7.424 c 0.028,0.026 0.063,0.051 0.092,0.077 0.218,0.192 0.44,0.383 0.69,0.567 C 9.049,28.786 16.582,31 27.5,31 c 10.872,0 18.386,-2.196 22.169,-5.028 0.302,-0.22 0.574,-0.447 0.83,-0.678 L 50.5,25.293 v 7.424 c -0.042,0.143 -0.056,0.294 -0.031,0.445 0.019,0.112 0.031,0.225 0.031,0.338 0,0.161 -0.041,0.323 -0.079,0.485 z M 50.5,13.293 v 7.424 c -0.042,0.143 -0.056,0.294 -0.031,0.445 0.019,0.112 0.031,0.225 0.031,0.338 0,0.161 -0.041,0.323 -0.079,0.485 -0.028,0.121 -0.067,0.241 -0.116,0.363 -0.04,0.099 -0.089,0.198 -0.143,0.297 -0.067,0.123 -0.142,0.246 -0.231,0.369 -0.066,0.093 -0.141,0.185 -0.219,0.277 -0.111,0.131 -0.229,0.262 -0.363,0.392 -0.081,0.079 -0.17,0.157 -0.26,0.236 -0.164,0.143 -0.335,0.285 -0.526,0.426 -0.082,0.061 -0.17,0.12 -0.257,0.18 -0.226,0.156 -0.462,0.311 -0.721,0.463 -0.068,0.041 -0.141,0.08 -0.212,0.12 -0.298,0.168 -0.609,0.335 -0.945,0.497 -0.043,0.021 -0.088,0.041 -0.132,0.061 -0.375,0.177 -0.767,0.351 -1.186,0.519 -0.012,0.005 -0.024,0.009 -0.036,0.014 -2.271,0.907 -5.176,1.67 -8.561,2.17 -0.017,0.002 -0.034,0.004 -0.051,0.007 -0.658,0.097 -1.333,0.183 -2.026,0.259 -0.113,0.012 -0.232,0.02 -0.346,0.032 -0.605,0.063 -1.217,0.121 -1.847,0.167 -0.288,0.021 -0.59,0.031 -0.883,0.049 -0.474,0.028 -0.943,0.059 -1.429,0.076 C 29.137,28.984 28.327,29 27.5,29 26.673,29 25.863,28.984 25.068,28.956 24.582,28.939 24.113,28.907 23.639,28.88 23.346,28.863 23.044,28.852 22.756,28.831 22.126,28.785 21.514,28.727 20.909,28.664 20.795,28.652 20.676,28.644 20.563,28.632 19.87,28.556 19.195,28.469 18.537,28.373 18.52,28.371 18.503,28.369 18.486,28.366 15.101,27.866 12.196,27.103 9.925,26.196 9.913,26.192 9.901,26.187 9.889,26.182 9.47,26.014 9.077,25.84 8.703,25.663 8.66,25.642 8.614,25.622 8.571,25.602 8.235,25.44 7.924,25.274 7.626,25.105 7.556,25.065 7.482,25.026 7.414,24.985 7.155,24.833 6.919,24.678 6.693,24.522 6.607,24.462 6.518,24.403 6.436,24.342 6.245,24.201 6.074,24.059 5.91,23.916 5.821,23.838 5.731,23.76 5.65,23.68 5.516,23.55 5.398,23.42 5.287,23.288 5.209,23.196 5.134,23.104 5.068,23.011 4.98,22.888 4.905,22.765 4.837,22.642 4.783,22.543 4.735,22.444 4.694,22.345 4.645,22.224 4.606,22.103 4.578,21.982 4.541,21.823 4.5,21.661 4.5,21.5 4.5,21.387 4.513,21.274 4.531,21.162 4.556,21.011 4.542,20.86 4.5,20.717 v -7.424 c 0.12,0.109 0.257,0.216 0.387,0.324 0.072,0.06 0.139,0.12 0.215,0.18 0.3,0.236 0.624,0.469 0.975,0.696 0.073,0.047 0.155,0.093 0.231,0.14 0.294,0.183 0.605,0.362 0.932,0.538 0.121,0.065 0.242,0.129 0.367,0.193 0.365,0.186 0.748,0.367 1.151,0.542 0.066,0.029 0.126,0.059 0.193,0.087 0.469,0.199 0.967,0.389 1.485,0.573 0.143,0.051 0.293,0.099 0.44,0.149 0.412,0.139 0.838,0.272 1.279,0.401 0.159,0.046 0.315,0.094 0.478,0.138 0.585,0.162 1.189,0.316 1.823,0.458 0.087,0.02 0.181,0.036 0.269,0.055 0.559,0.122 1.139,0.235 1.735,0.341 0.202,0.036 0.407,0.07 0.613,0.104 0.567,0.093 1.151,0.178 1.75,0.256 0.154,0.02 0.301,0.043 0.457,0.062 0.744,0.09 1.514,0.167 2.305,0.233 0.195,0.016 0.398,0.028 0.596,0.042 0.633,0.046 1.28,0.084 1.942,0.114 0.241,0.011 0.481,0.022 0.727,0.031 0.862,0.029 1.74,0.05 2.65,0.05 0.91,0 1.788,-0.021 2.65,-0.05 0.245,-0.009 0.485,-0.02 0.727,-0.031 0.662,-0.03 1.309,-0.068 1.942,-0.114 0.198,-0.015 0.4,-0.026 0.596,-0.042 0.791,-0.065 1.561,-0.143 2.305,-0.233 0.156,-0.019 0.303,-0.042 0.457,-0.062 0.599,-0.078 1.182,-0.163 1.75,-0.256 0.206,-0.034 0.411,-0.068 0.613,-0.104 0.596,-0.106 1.176,-0.219 1.735,-0.341 0.088,-0.019 0.182,-0.036 0.269,-0.055 0.634,-0.142 1.238,-0.297 1.823,-0.458 0.163,-0.045 0.319,-0.092 0.478,-0.138 0.441,-0.129 0.867,-0.262 1.279,-0.401 0.147,-0.05 0.297,-0.098 0.44,-0.149 0.518,-0.184 1.017,-0.374 1.485,-0.573 0.067,-0.028 0.127,-0.058 0.193,-0.087 0.403,-0.176 0.786,-0.356 1.151,-0.542 0.125,-0.064 0.247,-0.128 0.367,-0.193 0.327,-0.175 0.638,-0.354 0.932,-0.538 0.076,-0.047 0.158,-0.093 0.231,-0.14 0.351,-0.227 0.675,-0.459 0.975,-0.696 0.075,-0.06 0.142,-0.12 0.215,-0.18 0.13,-0.108 0.267,-0.215 0.387,-0.324 z M 27.5,2 c 13.555,0 23,3.952 23,7.5 0,3.548 -9.445,7.5 -23,7.5 C 13.945,17 4.5,13.048 4.5,9.5 4.5,5.952 13.945,2 27.5,2 Z m 23,43.703 c -0.014,0.044 -0.024,0.089 -0.032,0.135 C 49.901,49.297 40.536,53 27.5,53 14.464,53 5.099,49.297 4.532,45.838 4.524,45.793 4.513,45.749 4.5,45.707 v -8.414 c 0.028,0.026 0.063,0.051 0.092,0.077 0.218,0.192 0.44,0.383 0.69,0.567 C 9.049,40.786 16.582,43 27.5,43 c 10.872,0 18.386,-2.196 22.169,-5.028 0.302,-0.22 0.574,-0.447 0.83,-0.678 L 50.5,37.293 Z"
       inkscape:connector-curvature="0" />
    <g
       id="g4568" />
    <g
       id="g4570" />
    <g
       id="g4572" />
    <g
       id="g4574" />
    <g
       id="g4576" />
    <g
       id="g4578" />
    <g
       id="g4580" />
    <g
       id="g4582" />
    <g
       id="g4584" />
    <g
       id="g4586" />
    <g
       id="g4588" />
    <g
       id="g4590" />
    <g
       id="g4592" />
    <g
       id="g4594" />
    <g
       id="g4596" />
  </g>
</svg>
