<svg height="480pt" viewBox="0 -47 480 479" width="480pt" xmlns="http://www.w3.org/2000/svg"><path d="m464 256.5h-16.640625c-3.972656-27.527344-27.546875-47.96875-55.359375-48h-.617188c-11.257812-19.332031-31.738281-31.445312-54.101562-32-12.285156-28.1875-39.644531-46.832031-70.367188-47.953125-30.726562-1.121094-59.375 15.476563-73.683593 42.6875-5.558594-1.824219-11.378907-2.746094-17.230469-2.734375-21.347656.035156-40.824219 12.195312-50.230469 31.359375-9.171875-4.851563-19.394531-7.378906-29.769531-7.359375-35.328125.039062-63.960938 28.671875-64 64h-16c-8.835938 0-16 7.164062-16 16v16c0 8.835938 7.164062 16 16 16h2.585938l28 69.9375c2.40625 6.082031 8.289062 10.074219 14.828124 10.0625h357.171876c6.546874.023438 12.441406-3.96875 14.855468-10.054688l27.972656-69.945312h2.585938c8.835938 0 16-7.164062 16-16v-16c0-8.835938-7.164062-16-16-16zm-368-48c10.453125-.011719 20.621094 3.410156 28.9375 9.742188 2.117188 1.605468 4.894531 2.046874 7.410156 1.1875 2.511719-.859376 4.4375-2.910157 5.132813-5.472657 4.746093-17.371093 20.511719-29.425781 38.519531-29.457031 6.148438-.011719 12.214844 1.425781 17.703125 4.191406 2.003906 1 4.332031 1.113282 6.421875.316406 2.089844-.796874 3.75-2.429687 4.578125-4.507812 9.960937-24.707031 34.195313-40.648438 60.824219-40.015625 26.632812.636719 50.078125 17.71875 58.847656 42.871094 1.242188 3.53125 4.761719 5.730469 8.480469 5.296875 1.042969-.113282 2.09375-.164063 3.144531-.152344 18.625.085938 35.542969 10.875 43.480469 27.726562 1.496093 3.183594 4.894531 5.011719 8.375 4.511719 1.375-.175781 2.757812-.253906 4.144531-.238281 19 .023438 35.371094 13.386719 39.199219 32h-383.199219c.027344-26.5 21.5-47.972656 48-48zm322.585938 160h-357.160157l-25.601562-64h408.359375zm-402.585938-80v-16h448v16zm0 0"/><path d="m226.238281 96.5h16c-.066406-4.175781 1.457031-8.21875 4.257813-11.3125 9.6875-12.074219 9.6875-29.257812 0-41.335938-5.675782-6.492187-5.675782-16.179687 0-22.671874 4.792968-5.816407 7.367187-13.144532 7.265625-20.679688h-16c.0625 4.179688-1.457031 8.230469-4.257813 11.335938-9.683594 12.085937-9.683594 29.273437 0 41.359374 2.792969 3.097657 4.3125 7.136719 4.257813 11.304688.085937 4.175781-1.441407 8.222656-4.257813 11.304688-4.800781 5.816406-7.378906 13.152343-7.265625 20.695312zm0 0"/><path d="m346.238281 96.5h16c-.066406-4.175781 1.457031-8.21875 4.257813-11.3125 9.6875-12.074219 9.6875-29.257812 0-41.335938-5.675782-6.492187-5.675782-16.179687 0-22.671874 4.792968-5.816407 7.367187-13.144532 7.265625-20.679688h-16c.0625 4.179688-1.457031 8.230469-4.257813 11.335938-9.683594 12.085937-9.683594 29.273437 0 41.359374 2.792969 3.097657 4.3125 7.136719 4.257813 11.304688.085937 4.175781-1.441407 8.222656-4.257813 11.304688-4.800781 5.816406-7.378906 13.152343-7.265625 20.695312zm0 0"/><path d="m106.238281 96.5h16c-.066406-4.175781 1.457031-8.21875 4.257813-11.3125 9.6875-12.074219 9.6875-29.257812 0-41.335938-5.675782-6.492187-5.675782-16.179687 0-22.671874 4.792968-5.816407 7.367187-13.144532 7.265625-20.679688h-16c.0625 4.179688-1.457031 8.230469-4.257813 11.335938-9.683594 12.085937-9.683594 29.273437 0 41.359374 2.792969 3.097657 4.3125 7.136719 4.257813 11.304688.085937 4.175781-1.441407 8.222656-4.257813 11.304688-4.800781 5.816406-7.378906 13.152343-7.265625 20.695312zm0 0"/></svg>