<?xml version="1.0" encoding="UTF-8" standalone="no"?>
<!-- Created with Inkscape (http://www.inkscape.org/) -->

<svg
   xmlns:dc="http://purl.org/dc/elements/1.1/"
   xmlns:cc="http://creativecommons.org/ns#"
   xmlns:rdf="http://www.w3.org/1999/02/22-rdf-syntax-ns#"
   xmlns:svg="http://www.w3.org/2000/svg"
   xmlns="http://www.w3.org/2000/svg"
   xmlns:sodipodi="http://sodipodi.sourceforge.net/DTD/sodipodi-0.dtd"
   xmlns:inkscape="http://www.inkscape.org/namespaces/inkscape"
   width="297mm"
   height="210mm"
   viewBox="0 0 297 210"
   version="1.1"
   id="svg192"
   inkscape:version="0.92.4 (5da689c313, 2019-01-14)"
   sodipodi:docname="Beer++logo.svg">
  <defs
     id="defs186" />
  <sodipodi:namedview
     id="base"
     pagecolor="#ffffff"
     bordercolor="#666666"
     borderopacity="1.0"
     inkscape:pageopacity="0.0"
     inkscape:pageshadow="2"
     inkscape:zoom="0.35"
     inkscape:cx="353.47968"
     inkscape:cy="573.24028"
     inkscape:document-units="mm"
     inkscape:current-layer="layer1"
     showgrid="false"
     inkscape:lockguides="true"
     inkscape:window-width="1296"
     inkscape:window-height="704"
     inkscape:window-x="70"
     inkscape:window-y="27"
     inkscape:window-maximized="1" />
  <metadata
     id="metadata189">
    <rdf:RDF>
      <cc:Work
         rdf:about="">
        <dc:format>image/svg+xml</dc:format>
        <dc:type
           rdf:resource="http://purl.org/dc/dcmitype/StillImage" />
        <dc:title />
      </cc:Work>
    </rdf:RDF>
  </metadata>
  <g
     inkscape:label="Capa 1"
     inkscape:groupmode="layer"
     id="layer1"
     transform="translate(0,-87)">
    <g
       id="g381"
       transform="matrix(0.26458333,0,0,0.26458333,34.92501,106.04643)">
      <g
         id="g297">
        <g
           id="g295">
          <path
             id="path293"
             d="m 286,451.29 c -5.52,0 -10,4.48 -10,10 0,5.52 4.48,10 10,10 5.52,0 10,-4.48 10,-10 0,-5.52 -4.48,-10 -10,-10 z"
             inkscape:connector-curvature="0" />
        </g>
      </g>
      <g
         id="g303">
        <g
           id="g301">
          <path
             id="path299"
             d="m 145.5,200.29 c -5.523,0 -10,4.477 -10,10 v 191 c 0,5.523 4.477,10 10,10 5.523,0 10,-4.477 10,-10 v -191 c 0,-5.523 -4.477,-10 -10,-10 z"
             inkscape:connector-curvature="0" />
        </g>
      </g>
      <g
         id="g309">
        <g
           id="g307">
          <path
             id="path305"
             d="m 225.5,200.29 c -5.523,0 -10,4.477 -10,10 v 191 c 0,5.523 4.477,10 10,10 5.523,0 10,-4.477 10,-10 v -191 c 0,-5.523 -4.477,-10 -10,-10 z"
             inkscape:connector-curvature="0" />
        </g>
      </g>
      <g
         id="g315">
        <g
           id="g313">
          <path
             id="path311"
             d="m 426.5,161 h -50 V 130.741 C 392.175,118.99 399.625,99.128 395.207,79.517 391.074,61.127 375.894,46.119 357.439,42.172 347.628,40.067 337.747,40.812 328.744,44.235 319.716,30.002 303.862,21 286.5,21 279.956,21 273.561,22.269 267.648,24.711 250.91,8.922 228.843,0 206,0 175.784,0 147.604,15.393 130.97,40.579 78.7,37.687 35.5,79.156 35.5,130.29 v 120 c 0,16.542 13.682,30 30.5,30 3.689,0 7.224,-0.671 10.5,-1.893 V 462 c 0,27.57 22.43,50 50,50 h 200 c 27.57,0 50,-22.43 50,-50 v -30 h 50 c 27.57,0 50,-22.43 50,-50 V 211 c 0,-27.57 -22.43,-50 -50,-50 z m -70,291 h -30.51 c -5.523,0 -10,4.477 -10,10 0,5.523 4.477,9.9 10,9.9 h 28.79 C 350.652,483.539 339.536,492 326.5,492 h -200 c -13.036,0 -24.152,-8.361 -28.28,-20 h 147.79 c 5.523,0 10,-4.477 10,-10 0,-5.523 -4.477,-10 -10,-10 H 96.5 V 250.07 179.506 c 22.463,-3.391 41.914,-17.538 52.14,-38.505 2.086,0 3.924,0.722 5.309,2.081 11.286,11.098 26.22,17.209 42.051,17.209 16.408,0 31.725,-6.495 43.135,-18.295 0.61,-0.632 1.473,-0.995 2.365,-0.995 15.567,0 25.753,3.325 30.277,9.881 3.729,5.405 3.726,12.915 3.723,18.95 v 40.459 c 0,13.036 8.361,24.152 20,28.28 v 162.72 c 0,5.523 4.477,10 10,10 5.523,0 10,-4.477 10,-10 V 238.57 c 11.639,-4.128 20,-15.243 20,-28.28 v -70.464 c 7.005,1.398 14.154,1.407 21,0.007 z M 330.033,116.947 c -3.1,-1.577 -6.796,-1.43 -9.762,0.389 -2.965,1.818 -4.772,5.046 -4.772,8.524 v 84.43 c 0,5.514 -4.486,10 -10,10 -5.514,0 -10,-4.486 -10,-10 v -40.452 c 0.003,-7.876 0.008,-19.779 -7.261,-30.315 C 279.759,127.232 264.034,121 241.5,121 c -6.29,0 -12.396,2.589 -16.749,7.099 -7.602,7.862 -17.813,12.191 -28.751,12.191 -10.553,0 -20.507,-4.073 -28.035,-11.477 C 162.832,123.774 155.969,121 148.64,121 c -7.579,0 -14.623,4.397 -17.946,11.202 -8.382,17.164 -25.35,27.927 -44.28,28.089 -5.489,0.047 -9.915,4.51 -9.915,10 v 79.525 C 76.147,255.705 71.568,260.29 66,260.29 c -5.691,0 -10.5,-4.58 -10.5,-10 v -120 c 0,-38.596 31.582,-69.852 70.407,-69.852 3.017,0 6.05,0.192 9.081,0.581 4.045,0.519 7.998,-1.471 9.993,-5.026 C 157.437,33.792 180.818,20 206,20 c 19.73,0 38.752,8.615 52.187,23.637 3.256,3.642 8.668,4.398 12.799,1.785 C 275.559,42.529 280.924,41 286.5,41 c 12.73,0 24.108,8.061 28.313,20.057 1.023,2.92 3.341,5.203 6.277,6.181 2.935,0.978 6.159,0.542 8.729,-1.182 6.816,-4.57 15.134,-6.107 23.429,-4.327 10.8,2.31 20.03,11.428 22.446,22.179 5.692,25.264 -20.205,45.988 -45.661,33.039 z M 376.5,221 h 40 v 151 h -40 z m 80,161 c 0,16.542 -13.458,30 -30,30 h -50 v -20 h 50 c 5.523,0 10,-4.477 10,-10 V 211 c 0,-5.523 -4.477,-10 -10,-10 h -50 v -20 h 50 c 16.542,0 30,13.458 30,30 z"
             inkscape:connector-curvature="0" />
        </g>
      </g>
      <g
         id="g317" />
      <g
         id="g319" />
      <g
         id="g321" />
      <g
         id="g323" />
      <g
         id="g325" />
      <g
         id="g327" />
      <g
         id="g329" />
      <g
         id="g331" />
      <g
         id="g333" />
      <g
         id="g335" />
      <g
         id="g337" />
      <g
         id="g339" />
      <g
         id="g341" />
      <g
         id="g343" />
      <g
         id="g345" />
    </g>
    <flowRoot
       xml:space="preserve"
       id="flowRoot383"
       style="font-style:normal;font-variant:normal;font-weight:normal;font-stretch:normal;font-size:40px;line-height:1.25;font-family:'Baloo Tamma';-inkscape-font-specification:'Baloo Tamma';letter-spacing:0px;word-spacing:0px;fill:#000000;fill-opacity:1;stroke:none"><flowRegion
         id="flowRegion385"
         style="font-style:normal;font-variant:normal;font-weight:normal;font-stretch:normal;font-family:'Baloo Tamma';-inkscape-font-specification:'Baloo Tamma'"><rect
           id="rect387"
           width="862.85712"
           height="188.57143"
           x="88.571426"
           y="596.55792"
           style="font-style:normal;font-variant:normal;font-weight:normal;font-stretch:normal;font-family:'Baloo Tamma';-inkscape-font-specification:'Baloo Tamma'" /></flowRegion><flowPara
         id="flowPara389" /></flowRoot>    <flowRoot
       xml:space="preserve"
       id="flowRoot391"
       style="font-style:normal;font-variant:normal;font-weight:normal;font-stretch:normal;font-size:160px;line-height:1.25;font-family:'Baloo Tamma';-inkscape-font-specification:'Baloo Tamma';letter-spacing:0px;word-spacing:0px;fill:#000000;fill-opacity:1;stroke:none"
       transform="matrix(0.26458333,0,0,0.26458333,64.029199,87)"><flowRegion
         id="flowRegion393"
         style="font-style:normal;font-variant:normal;font-weight:normal;font-stretch:normal;font-size:160px;font-family:'Baloo Tamma';-inkscape-font-specification:'Baloo Tamma'"><rect
           id="rect395"
           width="954.28571"
           height="194.28572"
           x="45.714287"
           y="587.98651"
           style="font-style:normal;font-variant:normal;font-weight:normal;font-stretch:normal;font-size:160px;font-family:'Baloo Tamma';-inkscape-font-specification:'Baloo Tamma'" /></flowRegion><flowPara
         id="flowPara397"> Beer ++</flowPara></flowRoot>    <g
       id="g559"
       transform="matrix(0.29423426,0,0,0.27200229,125.41269,136.85266)">
      <path
         id="path539"
         d="M 464,256.5 H 447.35937 C 443.38672,228.97266 419.8125,208.53125 392,208.5 h -0.61719 c -11.25781,-19.33203 -31.73828,-31.44531 -54.10156,-32 -12.28516,-28.1875 -39.64453,-46.83203 -70.36719,-47.95313 -30.72656,-1.12109 -59.375,15.47657 -73.68359,42.6875 C 187.67187,169.41016 181.85156,168.48828 176,168.5 154.65234,168.5352 135.17578,180.69531 125.76953,199.85937 116.59766,195.00781 106.375,192.48047 96,192.5 c -35.328125,0.0391 -63.960938,28.67187 -64,64 H 16 c -8.835938,0 -16,7.16406 -16,16 v 16 c 0,8.83594 7.164062,16 16,16 h 2.585938 l 28,69.9375 c 2.40625,6.08203 8.289062,10.07422 14.828124,10.0625 H 418.58594 c 6.54687,0.0234 12.4414,-3.96875 14.85547,-10.05469 L 461.41406,304.5 H 464 c 8.83594,0 16,-7.16406 16,-16 v -16 c 0,-8.83594 -7.16406,-16 -16,-16 z m -368,-48 c 10.45313,-0.0117 20.62109,3.41016 28.9375,9.74219 2.11719,1.60547 4.89453,2.04687 7.41016,1.1875 2.51171,-0.85938 4.4375,-2.91016 5.13281,-5.47266 C 142.22656,196.58594 157.99219,184.53125 176,184.5 c 6.14844,-0.0117 12.21484,1.42578 17.70312,4.19141 2.00391,1 4.33204,1.11328 6.42188,0.3164 2.08984,-0.79687 3.75,-2.42969 4.57812,-4.50781 9.96094,-24.70703 34.19532,-40.64844 60.82422,-40.01563 26.63282,0.63672 50.07813,17.71875 58.84766,42.8711 1.24219,3.53125 4.76172,5.73047 8.48047,5.29687 1.04297,-0.11328 2.09375,-0.16406 3.14453,-0.15234 18.625,0.0859 35.54297,10.875 43.48047,27.72656 1.49609,3.1836 4.89453,5.01172 8.375,4.51172 1.375,-0.17578 2.75781,-0.25391 4.14453,-0.23828 19,0.0234 35.37109,13.38672 39.19922,32 H 48 c 0.02734,-26.5 21.5,-47.97266 48,-48 z m 322.58594,160 H 61.425781 l -25.601562,-64 H 444.18359 Z M 16,288.5 v -16 h 448 v 16 z m 0,0"
         inkscape:connector-curvature="0" />
      <path
         id="path541"
         d="m 256.81193,104.2818 h 16 c -0.0664,-4.17578 1.45703,-8.218757 4.25781,-11.312506 9.6875,-12.074214 9.6875,-29.25781 0,-41.335936 -5.67578,-6.492187 -5.67578,-16.179687 0,-22.671874 4.79297,-5.816407 7.36719,-13.144531 7.26563,-20.6796863 h -16 c 0.0625,4.1796873 -1.45703,8.2304673 -4.25781,11.3359363 -9.6836,12.085937 -9.6836,29.273437 0,41.359374 2.79296,3.097657 4.3125,7.136719 4.25781,11.304688 0.0859,4.175781 -1.44141,8.222655 -4.25781,11.304693 -4.80079,5.816397 -7.37891,13.152343 -7.26563,20.695311 z m 0,0"
         inkscape:connector-curvature="0" />
      <path
         id="path543"
         d="m 382.20728,162.6453 h 16 c -0.0664,-4.17578 1.45703,-8.21876 4.25781,-11.31251 9.6875,-12.07422 9.6875,-29.25782 0,-41.33596 -5.67578,-6.49219 -5.67578,-16.179689 0,-22.671876 4.79297,-5.816407 7.36719,-13.144531 7.26563,-20.679686 h -16 c 0.0625,4.179687 -1.45703,8.230467 -4.25781,11.335936 -9.6836,12.085937 -9.6836,29.273436 0,41.359386 2.79296,3.09766 4.3125,7.13672 4.25781,11.30469 0.0859,4.17578 -1.44141,8.22266 -4.25781,11.3047 -4.80079,5.8164 -7.37891,13.15235 -7.26563,20.69532 z m 0,0"
         inkscape:connector-curvature="0" />
      <path
         id="path545"
         d="m 149.40108,135.409 h 16 c -0.0664,-4.17578 1.45703,-8.21876 4.25781,-11.31251 9.6875,-12.07422 9.6875,-29.257822 0,-41.335948 -5.67578,-6.492187 -5.67578,-16.179687 0,-22.671874 4.79297,-5.816407 7.36719,-13.144531 7.26563,-20.679686 h -16 c 0.0625,4.179687 -1.45703,8.230467 -4.25781,11.335936 -9.6836,12.085937 -9.6836,29.273437 0,41.359374 2.79297,3.097657 4.3125,7.136719 4.25781,11.304688 0.0859,4.17578 -1.44141,8.22266 -4.25781,11.3047 -4.80078,5.8164 -7.37891,13.15235 -7.26563,20.69532 z m 0,0"
         inkscape:connector-curvature="0" />
    </g>
    <path
       style="fill:#ffcc00;fill-opacity:0.99516913;stroke:#ffdf00;stroke-width:0.53453904;stroke-opacity:1"
       d="m 65.120177,235.15934 c -0.964843,-0.47555 -2.244072,-1.55251 -2.842731,-2.39325 l -1.08847,-1.52862 h 19.998767 c 18.695611,0 20.056417,-0.0637 20.883427,-0.97753 1.16059,-1.28243 1.12279,-2.91758 -0.0929,-4.01774 -0.87319,-0.79023 -3.12697,-0.88466 -21.114297,-0.88466 h -20.13676 v -35.75259 -35.75258 l 2.773926,-0.90731 c 3.620191,-1.1841 6.872081,-3.45855 8.913283,-6.23416 0.902949,-1.22781 1.721141,-2.47065 1.818209,-2.76185 0.09707,-0.2912 1.367689,0.31601 2.823604,1.34937 3.389889,2.40604 6.115799,3.27625 10.167272,3.24577 3.664459,-0.0276 7.645464,-1.52209 9.961012,-3.73951 1.268291,-1.21455 1.743351,-1.34288 3.884631,-1.04939 3.73965,0.51258 5.49148,1.6437 6.13512,3.96131 0.30605,1.10202 0.55869,5.25099 0.56143,9.21994 0.006,8.03362 0.59352,9.86117 3.75054,11.65749 l 1.58909,0.90418 0.003,22.2982 c 0.003,21.49667 0.0405,22.31809 1.03733,22.85155 1.45023,0.77613 2.49496,0.68986 3.47148,-0.28665 0.73632,-0.73632 0.84041,-3.55674 0.84337,-22.85154 l 0.003,-22.01156 1.58907,-0.90418 c 0.874,-0.49729 2.07429,-1.70001 2.66732,-2.67269 0.98249,-1.61147 1.07842,-2.68229 1.08024,-12.05839 l 0.002,-10.28988 h 2.6727 2.67269 v 31.5378 c 0,25.83418 -0.12815,31.5378 -0.70863,31.5378 -0.38974,0 -1.23164,0.55673 -1.87089,1.23717 -0.96813,1.03053 -1.16225,1.87138 -1.16225,5.0344 0,4.62317 0.23848,5.30774 2.20293,6.3236 1.38254,0.71494 1.53884,1.06584 1.53884,3.45473 v 2.65897 h -4.50531 c -4.91349,0 -6.18539,0.60455 -6.18539,2.93997 0,2.26174 1.3036,2.93996 5.65085,2.93996 2.18397,0 3.97086,0.19519 3.97086,0.43375 0,0.23856 -0.51515,0.98669 -1.14478,1.66252 -2.51375,2.69819 -2.72063,2.71546 -32.380466,2.70241 -24.402467,-0.0107 -27.887257,-0.11454 -29.43382,-0.87681 z M 113.2332,229.3143 c 0.82539,-1.81153 -0.6858,-3.95676 -2.7873,-3.95676 -2.79072,0 -3.67249,3.8908 -1.16408,5.13653 1.65705,0.82293 3.25647,0.34539 3.95138,-1.17977 z M 75.349251,214.2182 c 0.808892,-0.89382 0.877102,-3.4047 0.751023,-27.6467 l -0.138676,-26.66359 -1.279094,-0.63761 c -1.60881,-0.80197 -3.578926,-0.0133 -4.013692,1.60681 -0.167902,0.62566 -0.30856,12.62346 -0.312574,26.6618 -0.0071,24.81658 0.02233,25.55387 1.061778,26.59331 1.333424,1.33343 2.773805,1.36493 3.931235,0.086 z m 21.192091,-0.086 c 1.039874,-1.03987 1.069074,-1.78179 1.069074,-27.15932 0,-28.21718 0.0188,-28.03183 -2.846355,-28.03183 -3.150921,0 -3.033571,-1.0762 -3.033571,27.81939 0,23.89516 0.0865,26.58139 0.884657,27.46331 1.15269,1.27369 2.594584,1.24007 3.926195,-0.0916 z"
       inkscape:connector-curvature="0"
       id="path5341" />
    <rect
       style="fill:#ffffff;fill-opacity:1;stroke:#ffffff;stroke-width:0.26722002;stroke-opacity:0"
       id="rect5501"
       width="5.1471744"
       height="26.533297"
       x="150.40816"
       y="180.72847"
       ry="0.05903722" />
    <path
       style="fill:#ffffff;fill-opacity:1;stroke:#ffffff;stroke-width:0.06681738;stroke-opacity:1"
       d="m 150.17459,193.858 v -13.36348 h 2.43884 2.43883 v 13.36348 13.36347 h -2.43883 -2.43884 z m 4.67722,-8e-4 v -13.16392 l -2.22168,0.0176 -2.22168,0.0176 -0.0171,13.0628 c -0.009,7.18454 -0.003,13.10038 0.0146,13.14632 0.0245,0.0645 0.53464,0.0835 2.23882,0.0835 h 2.20707 z"
       inkscape:connector-curvature="0"
       id="path5558" />
    <path
       style="fill:#ffffff;fill-opacity:1;stroke:#ffffff;stroke-width:0.17857143;stroke-opacity:0.99033813"
       d=""
       id="path5607"
       inkscape:connector-curvature="0"
       transform="matrix(0.26458333,0,0,0.26458333,0,87)" />
    <rect
       style="fill:#ffffff;fill-opacity:1;stroke:#ffffff;stroke-width:0.26458332;stroke-opacity:0.99033813"
       id="rect5621"
       width="0.25215042"
       height="0.85486323"
       x="150.33037"
       y="206.26208" />
    <rect
       style="fill:#ffffff;fill-opacity:1;stroke:#ffffff;stroke-width:0.27850223;stroke-opacity:0.99033813"
       id="rect5623"
       width="5.3560486"
       height="4.3908348"
       x="150.30035"
       y="205.23694" />
    <ellipse
       style="fill:#ffffff;fill-opacity:1;stroke:#ffffff;stroke-width:0.35936457;stroke-opacity:0.99033813"
       id="path5629"
       cx="153.11292"
       cy="209.31889"
       rx="1.7065654"
       ry="2.7756436" />
    <ellipse
       style="fill:#ffffff;fill-opacity:1;stroke:#ffffff;stroke-width:0.35936457;stroke-opacity:0.99033813"
       id="path5629-6"
       cx="152.90114"
       cy="208.80106"
       rx="1.7065654"
       ry="2.7756436" />
    <ellipse
       style="fill:#ffffff;fill-opacity:1;stroke:#ffffff;stroke-width:0.35936457;stroke-opacity:0.99033813"
       id="path5629-6-7"
       cx="153.86459"
       cy="209.3022"
       rx="1.7065654"
       ry="2.7756436" />
    <ellipse
       style="fill:#ffffff;fill-opacity:1;stroke:#ffffff;stroke-width:0.35936457;stroke-opacity:0.99033813"
       id="path5629-6-5"
       cx="153.89801"
       cy="210.30446"
       rx="1.7065654"
       ry="2.7756436" />
    <ellipse
       style="fill:#ffffff;fill-opacity:1;stroke:#ffffff;stroke-width:0.35936457;stroke-opacity:0.99033813"
       id="path5629-6-3"
       cx="153.93141"
       cy="210.37126"
       rx="1.7065654"
       ry="2.7756436" />
    <ellipse
       style="fill:#ffffff;fill-opacity:1;stroke:#ffffff;stroke-width:0.26785412;stroke-opacity:0.99033813"
       id="path5629-6-56"
       cx="153.22983"
       cy="212.0584"
       rx="1.7523206"
       ry="1.5017555" />
    <ellipse
       style="fill:#ffffff;fill-opacity:1;stroke:#ffffff;stroke-width:0.20870104;stroke-opacity:0.99033813"
       id="path5629-6-2"
       cx="153.16302"
       cy="212.49272"
       rx="1.7818972"
       ry="0.89656693" />
    <ellipse
       style="fill:#ffffff;fill-opacity:1;stroke:#ffffff;stroke-width:0.28175822;stroke-opacity:0.99033813"
       id="path5629-6-9"
       cx="150.95807"
       cy="212.84351"
       rx="3.7498901"
       ry="0.77651662" />
    <ellipse
       style="fill:#ffffff;fill-opacity:1;stroke:#ffffff;stroke-width:0.35614589;stroke-opacity:0.99033813"
       id="path5629-6-1"
       cx="150.72418"
       cy="212.4426"
       rx="4.0801921"
       ry="1.1402272" />
    <ellipse
       style="fill:#ffffff;fill-opacity:1;stroke:#ffffff;stroke-width:0.35614589;stroke-opacity:0.99033813"
       id="path5629-6-1-0"
       cx="150.25645"
       cy="212.8101"
       rx="4.0801921"
       ry="1.1402272" />
    <ellipse
       style="fill:#ffffff;fill-opacity:1;stroke:#ffffff;stroke-width:0.35614589;stroke-opacity:0.99033813"
       id="path5629-6-1-9"
       cx="150.22305"
       cy="212.94373"
       rx="4.0801921"
       ry="1.1402272" />
    <ellipse
       style="fill:#ffffff;fill-opacity:1;stroke:#ffffff;stroke-width:0.35614589;stroke-opacity:0.99033813"
       id="path5629-6-1-3"
       cx="148.81989"
       cy="213.24442"
       rx="4.0801921"
       ry="1.1402272" />
    <ellipse
       style="fill:#ffffff;fill-opacity:1;stroke:#ffffff;stroke-width:0.35614589;stroke-opacity:0.99033813"
       id="path5629-6-1-6"
       cx="150.59055"
       cy="212.74329"
       rx="4.0801921"
       ry="1.1402272" />
    <ellipse
       style="fill:#ffffff;fill-opacity:1;stroke:#ffffff;stroke-width:0.35614589;stroke-opacity:0.99033813"
       id="path5629-6-1-6-0"
       cx="149.25421"
       cy="213.27782"
       rx="4.0801921"
       ry="1.1402272" />
    <ellipse
       style="fill:#ffffff;fill-opacity:1;stroke:#ffffff;stroke-width:0.35614589;stroke-opacity:0.99033813"
       id="path5629-6-1-6-6"
       cx="147.45013"
       cy="213.74554"
       rx="4.0801921"
       ry="1.1402272" />
    <rect
       style="fill:#ffffff;fill-opacity:1;stroke:#ffffff;stroke-width:0.26458332;stroke-opacity:0.99033813"
       id="rect5799"
       width="2.2049735"
       height="3.0735996"
       x="150.28987"
       y="208.76764" />
    <rect
       style="fill:#ffffff;fill-opacity:1;stroke:#ffffff;stroke-width:0.26458332;stroke-opacity:0.99033813"
       id="rect5801"
       width="0.06681738"
       height="0.16704345"
       x="162.51746"
       y="212.54283" />
    <rect
       style="fill:#000000;fill-opacity:1;stroke:#000000;stroke-width:0.23667291;stroke-opacity:0"
       id="rect5805"
       width="0.64212173"
       height="32.061394"
       x="149.74944"
       y="178.91571" />
    <path
       style="fill:#ffffff;fill-opacity:1;stroke:#ffffff;stroke-width:0.09449405;stroke-opacity:0"
       d="m 152.57987,185.34686 c 0,-1.02369 0.011,-1.08668 0.18899,-1.08668 0.17803,0 0.18899,0.063 0.18899,1.08668 0,1.02368 -0.011,1.08668 -0.18899,1.08668 -0.17803,0 -0.18899,-0.063 -0.18899,-1.08668 z"
       id="path5807"
       inkscape:connector-curvature="0" />
    <rect
       style="fill:#ffffff;fill-opacity:1;stroke:#ffffff;stroke-width:0.26458332;stroke-opacity:1"
       id="rect5815"
       width="4.9728088"
       height="26.388474"
       x="150.58252"
       y="180.72847" />
    <rect
       style="fill:#ffffff;fill-opacity:1;stroke:#ffffff;stroke-width:0.26458332;stroke-opacity:1"
       id="rect5817"
       width="0.66817379"
       height="0.26726952"
       x="186.90579"
       y="202.3866" />
    <rect
       style="fill:#ffcc00;fill-opacity:0.99607843;stroke:#ffcc00;stroke-width:0.26458332;stroke-opacity:0.99607843"
       id="rect5819"
       width="7.2130237"
       height="22.851585"
       x="121.80147"
       y="198.76418" />
    <path
       style="fill:#ffffff;fill-opacity:0.99607843;stroke:#ffcc00;stroke-width:0.37797621;stroke-opacity:0.99607843"
       d="m 50.660504,173.99084 c -0.734525,-0.73453 -0.755827,-1.25681 -0.751467,-18.42634 0.0049,-19.31874 0.03844,-19.67538 2.238132,-23.80243 3.175246,-5.95737 9.624242,-9.55397 17.131035,-9.55397 3.123925,0 3.429905,-0.16094 5.132194,-2.69941 6.100408,-9.09697 19.047172,-10.54546 27.318662,-3.05641 1.12041,1.01442 2.31876,1.94759 2.66301,2.07371 0.34424,0.12612 1.81888,-0.18557 3.27697,-0.69264 2.36742,-0.82331 2.86124,-0.87688 4.61533,-0.50069 2.13109,0.45703 4.34437,2.134 5.27719,3.99843 1.40534,2.80889 2.70461,3.32282 5.21304,2.06204 2.13952,-1.07536 3.8563,-1.2574 5.96177,-0.63214 2.0511,0.60911 4.37429,2.6674 5.05647,4.4799 1.02172,2.71461 0.15425,6.51744 -1.93024,8.46182 -2.06948,1.93038 -6.02549,2.57853 -8.76128,1.43545 -1.90004,-0.79389 -3.00695,-0.70787 -3.96116,0.30784 -0.80795,0.86003 -0.82184,1.07633 -0.82184,12.80022 0,11.49228 -0.0285,11.96158 -0.78338,12.92132 -0.86727,1.10253 -2.08792,1.2777 -3.20764,0.46032 -0.67262,-0.49101 -0.75349,-1.20695 -0.97136,-8.59896 -0.13071,-4.43485 -0.43518,-8.6969 -0.67659,-9.47122 -1.26245,-4.04923 -5.39364,-6.87487 -10.81037,-7.39406 -4.120884,-0.39498 -5.781115,-0.003 -7.902533,1.86397 -4.187345,3.68584 -9.745934,3.90818 -13.685238,0.54739 -2.151872,-1.83585 -3.74133,-2.5338 -5.806721,-2.5498 -2.459691,-0.019 -3.924995,0.90543 -5.483645,3.4597 -0.697704,1.14338 -1.833235,2.62134 -2.523403,3.28435 -1.562756,1.50127 -4.864206,3.05266 -7.110894,3.34149 -4.676031,0.60116 -4.538305,0.17172 -4.538305,14.15071 0,10.46949 -0.03472,11.00817 -0.755952,11.72941 -0.415774,0.41577 -1.181176,0.75595 -1.700892,0.75595 -0.519719,0 -1.285121,-0.34018 -1.700893,-0.75595 z"
       id="path6663"
       inkscape:connector-curvature="0" />
    <path
       style="fill:#ffffff;fill-opacity:0.99607843;stroke:#ffcc00;stroke-width:0.37797621;stroke-opacity:0.99607843"
       d="m 50.990268,173.74414 c -0.417875,-0.50319 -0.53983,-3.75567 -0.627142,-16.72544 -0.05961,-8.85543 0.0519,-17.4338 0.247811,-19.06304 1.073449,-8.92711 8.771665,-15.30169 18.5704,-15.37739 1.351265,-0.0105 2.829272,-0.22605 3.284461,-0.47914 0.455189,-0.25308 1.538576,-1.453 2.407529,-2.66648 3.976639,-5.55331 11.109999,-8.38364 17.8169,-7.06928 3.189478,0.62504 5.632726,1.83562 8.781023,4.35079 2.82762,2.25899 3.41083,2.40588 5.93268,1.4943 4.08418,-1.47632 7.59048,-0.26074 9.96786,3.45569 1.86618,2.91729 2.47587,3.11232 5.96497,1.90805 3.21418,-1.10939 4.45512,-1.0409 6.95761,0.38402 2.03962,1.16137 3.19614,2.81314 3.43146,4.9009 0.41332,3.66699 -1.59058,7.07859 -4.7061,8.01202 -2.05926,0.61697 -3.48158,0.57691 -6.18295,-0.17414 -2.20584,-0.61328 -2.3041,-0.60944 -3.29258,0.12857 -0.56039,0.41839 -1.13356,1.1706 -1.2737,1.67158 -0.14014,0.50098 -0.27176,5.87797 -0.29248,11.94888 -0.0401,11.76102 -0.18394,12.79605 -1.83536,13.21053 -1.81211,0.45481 -2.0538,-0.33901 -2.39598,-7.86959 -0.43164,-9.4993 -0.58411,-10.53594 -1.84115,-12.51807 -2.04309,-3.22163 -5.92246,-5.11494 -11.18717,-5.45986 -3.397951,-0.22262 -4.700145,0.20983 -8.224483,2.7313 -2.811905,2.01177 -5.833538,2.58836 -8.609559,1.64287 -0.706655,-0.24067 -2.518688,-1.29293 -4.026739,-2.33834 -2.359004,-1.63531 -3.045201,-1.92197 -4.913691,-2.0527 -2.749666,-0.19238 -4.052697,0.61899 -6.709185,4.17767 -1.040365,1.39369 -2.549199,2.98084 -3.352961,3.52702 -1.683324,1.14384 -5.076746,2.41562 -6.445499,2.41562 -1.423688,0 -2.723295,0.72847 -3.277346,1.83707 -0.363564,0.72744 -0.554053,4.02872 -0.703138,12.18566 -0.217924,11.92341 -0.304186,12.4356 -2.094362,12.4356 -0.46881,0 -1.085818,-0.2811 -1.371129,-0.62467 z"
       id="path6665"
       inkscape:connector-curvature="0" />
    <path
       style="fill:#ffffff;fill-opacity:0.99607843;stroke:#ffffff;stroke-width:0.37797621;stroke-opacity:1"
       d="m 51.428532,173.62832 c -0.469355,-0.29684 -0.577009,-2.75748 -0.698403,-15.9637 -0.163769,-17.81633 0.06495,-21.05177 1.741462,-24.63439 2.832893,-6.05376 8.128846,-9.36863 16.069582,-10.05837 l 3.800464,-0.33012 3.428034,-3.58827 c 3.695536,-3.86829 5.66297,-5.10977 9.764938,-6.16185 4.9076,-1.25872 9.875589,-0.0846 14.902441,3.52202 3.904,2.80098 4.27381,2.91589 6.9591,2.16244 2.7639,-0.77551 5.50518,-0.55758 7.0785,0.56271 0.64164,0.45689 1.90358,1.80214 2.80429,2.98944 1.91626,2.52597 2.60812,2.72323 6.16989,1.7591 3.17534,-0.85952 5.46624,-0.59011 7.27645,0.85574 2.73917,2.18782 3.43219,5.32883 1.86164,8.43769 -1.65194,3.26998 -4.39964,4.25312 -9.15419,3.2754 -2.66298,-0.54762 -3.11046,-0.55494 -3.86096,-0.0632 -1.66565,1.09138 -1.75432,1.71842 -1.98133,14.01087 -0.2271,12.29755 -0.33157,13.00367 -1.92381,13.00367 -0.36808,0 -0.78449,-0.29765 -0.92535,-0.66145 -0.14087,-0.36381 -0.48536,-4.36356 -0.76553,-8.88833 -0.43198,-6.97653 -0.63289,-8.48195 -1.32191,-9.90526 -1.57863,-3.26102 -5.21534,-5.50121 -10.17702,-6.26898 -4.213177,-0.65194 -6.123458,-0.16915 -10.302443,2.60375 -4.401353,2.92047 -6.631183,2.71743 -12.927184,-1.17707 -2.612866,-1.61624 -4.743341,-2.03272 -6.832568,-1.33567 -1.134745,0.3786 -2.169493,1.30163 -4.326779,3.85963 -3.093849,3.66854 -5.421468,5.12683 -9.381855,5.8779 -2.517089,0.47736 -3.418475,1.05541 -3.894391,2.49745 -0.210579,0.63806 -0.53331,5.99724 -0.71718,11.90928 -0.183872,5.91204 -0.454609,11.04683 -0.601636,11.41063 -0.291528,0.72134 -1.190519,0.85153 -2.064252,0.29894 z"
       id="path6667"
       inkscape:connector-curvature="0" />
    <path
       style="fill:#ffffff;fill-opacity:0.99607843;stroke:#ffffff;stroke-width:0.37797621;stroke-opacity:1"
       d="m 51.15528,173.51837 c -0.494884,-0.76465 -0.608848,-32.80746 -0.127711,-35.90846 0.551894,-3.55704 2.168932,-6.83146 4.554916,-9.22347 3.403629,-3.41222 7.495214,-5.08633 13.732562,-5.6188 l 2.96853,-0.25341 3.354382,-3.49033 c 3.606665,-3.75282 5.737545,-5.15083 9.242605,-6.06378 5.711392,-1.48763 10.369084,-0.35542 16.614486,4.03874 2.46504,1.73437 2.76727,1.84865 4.35,1.64492 7.35879,-0.94721 7.80608,-0.82797 11.14041,2.96986 1.18514,1.34989 2.45489,2.54959 2.82168,2.666 0.36679,0.11641 2.04142,-0.11663 3.72139,-0.51788 3.44844,-0.82364 4.99726,-0.65575 7.07327,0.76677 2.68311,1.83849 3.56031,5.33372 2.12118,8.45189 -1.68851,3.65849 -4.07188,4.50672 -9.86958,3.51252 -2.64949,-0.45433 -2.6647,-0.45202 -3.67437,0.55765 -0.99596,0.99595 -1.01874,1.12925 -1.28923,7.54328 -0.15144,3.59117 -0.28802,8.65552 -0.3035,11.25411 -0.0344,5.78001 -0.43939,7.55952 -1.7203,7.55952 -0.49767,0 -1.00848,-0.16765 -1.13512,-0.37255 -0.12664,-0.20491 -0.48655,-3.9894 -0.79979,-8.40997 -0.31325,-4.42058 -0.74747,-8.71777 -0.96494,-9.54932 -0.56803,-2.17196 -3.66655,-5.13186 -6.55413,-6.26091 -1.82642,-0.71414 -3.00567,-0.89004 -6.05816,-0.90369 l -3.790258,-0.017 -3.580275,2.07887 c -3.415755,1.98334 -3.702412,2.07887 -6.238265,2.07887 -2.531457,0 -2.828378,-0.0984 -6.236608,-2.06627 -3.096995,-1.78819 -3.902173,-2.08697 -5.982885,-2.22007 l -2.404279,-0.15379 -3.832329,3.97253 c -4.252097,4.40766 -5.013121,4.89827 -9.226923,5.94826 -1.826834,0.45521 -3.156637,1.0171 -3.550306,1.50015 -0.757658,0.92968 -0.962874,3.1367 -1.413004,15.19632 -0.183695,4.92138 -0.447167,9.13108 -0.585497,9.35491 -0.345411,0.55888 -1.983279,0.51337 -2.357951,-0.0655 z"
       id="path7212"
       inkscape:connector-curvature="0" />
    <path
       style="fill:#ffffff;fill-opacity:0.99607843;stroke:#ffffff;stroke-width:0.37797621;stroke-opacity:1"
       d="m 51.168668,173.54003 c -0.4822,-0.74652 -0.613923,-33.95339 -0.144864,-36.52011 0.572622,-3.13344 2.493676,-6.7685 4.731575,-8.95319 3.283215,-3.20516 7.452723,-4.88049 13.29727,-5.34291 l 3.084111,-0.24401 3.411505,-3.5049 c 2.716276,-2.79064 4.00304,-3.79725 6.314184,-4.93948 2.597896,-1.28395 3.272657,-1.45076 6.426262,-1.58869 4.704176,-0.20575 7.543264,0.65559 12.082499,3.66564 1.86724,1.23819 3.65009,2.29565 3.96193,2.34991 0.31183,0.0543 2.05087,-0.036 3.86453,-0.20053 4.93997,-0.44821 5.49936,-0.25368 8.67252,3.01595 3.07362,3.16707 3.05505,3.16164 7.52711,2.20065 l 2.88345,-0.61963 2.07309,0.94909 c 2.77169,1.26892 3.82767,2.78604 4.00556,5.75473 0.11139,1.85884 -0.0322,2.60053 -0.77138,3.98483 -1.65683,3.10275 -4.54781,3.98547 -9.84542,3.00616 -2.37391,-0.43884 -3.35146,-0.14674 -4.08292,1.22001 -0.27087,0.50611 -0.55497,4.90749 -0.76187,11.8031 -0.18147,6.04782 -0.5112,11.64421 -0.73273,12.43642 -0.353,1.26236 -0.52852,1.42587 -1.42017,1.32292 -1.27148,-0.14682 -1.35136,-0.54365 -2.14008,-10.63227 -0.35779,-4.57662 -0.79068,-7.88527 -1.1127,-8.50446 -0.89332,-1.71775 -3.33368,-3.90424 -5.51315,-4.9396 -1.77991,-0.84555 -2.68923,-1.00581 -6.32297,-1.11439 l -4.244068,-0.12682 -2.181518,1.31174 c -4.527882,2.7226 -5.315809,3.00151 -8.00738,2.83448 -2.157796,-0.13391 -2.943029,-0.41364 -5.891411,-2.09875 -3.968739,-2.26828 -6.718474,-2.87499 -8.308448,-1.83319 -0.523145,0.34277 -2.352358,2.08273 -4.064918,3.86658 -3.374351,3.5148 -5.252673,4.67959 -9.107834,5.64797 -1.361964,0.34212 -2.761808,0.93752 -3.11077,1.32311 -0.788813,0.87163 -1.147003,4.35695 -1.500203,14.59748 -0.324229,9.40051 -0.443664,10.09558 -1.761318,10.25014 -0.544664,0.0639 -1.133928,-0.10621 -1.309474,-0.37798 z"
       id="path7214"
       inkscape:connector-curvature="0" />
    <path
       style="fill:#ffffff;fill-opacity:0.99607843;stroke:#ffffff;stroke-width:0.37797621;stroke-opacity:1"
       d="m 50.849314,172.38444 c -0.129516,-0.88352 -0.18246,-9.44375 -0.117653,-19.02272 l 0.11783,-17.41633 1.608116,-3.24439 c 3.087283,-6.22862 7.947478,-9.20908 16.408334,-10.06221 l 3.275378,-0.33027 3.528192,-3.56124 c 5.350203,-5.40033 9.885143,-7.17586 16.136529,-6.31783 2.934181,0.40273 4.870682,1.23545 9.14507,3.9325 l 3.28865,2.07505 4.38318,-0.25034 c 4.29052,-0.24505 4.41469,-0.22947 5.87476,0.73675 0.82038,0.54289 1.94875,1.58645 2.50751,2.319 0.55875,0.73256 1.58979,1.68661 2.29121,2.12011 1.25067,0.77295 1.33473,0.77606 4.35021,0.16102 3.62832,-0.74004 5.00417,-0.55488 7.08672,0.95372 2.02589,1.46755 2.70543,2.86678 2.6978,5.55507 -0.007,2.49595 -1.00389,4.63482 -2.76661,5.93636 -0.95607,0.70593 -1.59305,0.79149 -5.89246,0.79149 -5.32233,0 -5.85355,0.18682 -6.21826,2.18683 -0.12185,0.66823 -0.39582,6.01166 -0.60883,11.8743 -0.213,5.86264 -0.55211,11.09289 -0.75357,11.62277 -0.48416,1.27342 -2.1496,1.34539 -2.61424,0.11298 -0.17635,-0.46775 -0.60589,-4.25224 -0.95454,-8.40997 -0.34865,-4.15774 -0.80609,-8.21246 -1.01654,-9.01049 -0.49851,-1.89039 -3.19373,-4.57865 -5.77554,-5.76063 -1.52515,-0.69824 -2.94046,-0.97232 -5.9816,-1.1584 l -3.983701,-0.24374 -3.542099,2.02984 c -3.155481,1.80827 -3.824958,2.04606 -6.133133,2.1784 -2.501812,0.14344 -2.726679,0.0801 -6.531332,-1.83903 -4.261334,-2.14951 -6.539005,-2.77229 -8.044984,-2.19972 -0.525963,0.19997 -2.749338,2.11212 -4.940837,4.24921 -3.661918,3.57102 -4.198266,3.95376 -6.624198,4.72707 -3.801671,1.21184 -5.400186,1.94196 -5.644256,2.578 -0.322638,0.84078 -0.887465,8.53901 -1.171456,15.96624 -0.138864,3.63169 -0.399952,6.99095 -0.580197,7.46503 -0.239403,0.62967 -0.629586,0.86197 -1.447845,0.86197 -1.028869,0 -1.139309,-0.13087 -1.355608,-1.6064 z"
       id="path7216"
       inkscape:connector-curvature="0" />
    <path
       style="fill:#ffffff;fill-opacity:0.99607843;stroke:#ffffff;stroke-width:0.37797621;stroke-opacity:1"
       d="m 51.794432,174.07207 c -0.31183,-0.10702 -0.691928,-0.38169 -0.844659,-0.61038 -0.15273,-0.22869 -0.280299,-8.71248 -0.283482,-18.85289 l -0.0058,-18.43709 1.3183,-2.77805 c 3.118718,-6.57206 7.913558,-9.72521 16.446584,-10.81548 l 3.590774,-0.4588 3.654314,-3.50749 c 4.046514,-3.88394 6.940283,-5.57863 10.699496,-6.26599 4.604607,-0.84194 8.490102,0.20619 14.706231,3.96708 l 3.45086,2.08784 3.32824,-0.34338 c 1.83052,-0.18886 3.5303,-0.28192 3.7773,-0.2068 0.247,0.0751 0.93357,0.24327 1.52572,0.37367 0.59608,0.13127 2.31653,1.41066 3.85455,2.86639 3.05495,2.89152 2.92496,2.854 7.5635,2.18333 3.42338,-0.49497 4.59809,-0.22981 6.65693,1.50259 1.54037,1.29613 2.2454,2.84876 2.26192,4.98118 0.0177,2.28686 -0.27654,3.27087 -1.44417,4.82942 -1.52533,2.03598 -2.57961,2.36195 -7.63934,2.36195 -3.50812,0 -4.65436,0.12687 -5.09099,0.56351 -0.6545,0.6545 -0.90248,2.98459 -1.18703,11.15375 -0.40168,11.5321 -0.60403,13.63986 -1.38439,14.42021 -0.5621,0.5621 -0.87598,0.63064 -1.459,0.31861 -0.96724,-0.51764 -0.99823,-0.68406 -1.88644,-10.12935 -0.45347,-4.82229 -0.97446,-8.47279 -1.29873,-9.09983 -0.72041,-1.39314 -3.19974,-3.59829 -5.18356,-4.61036 -1.13563,-0.57935 -2.82898,-0.92946 -5.80434,-1.20008 -4.145471,-0.37704 -4.220801,-0.36956 -5.703682,0.56655 -3.898485,2.461 -6.280973,3.39309 -8.638191,3.37949 -1.980815,-0.0114 -2.847696,-0.28256 -6.354438,-1.98752 -2.59184,-1.26014 -4.727599,-2.03838 -5.904331,-2.15145 l -1.843619,-0.17715 -4.108167,3.85601 c -4.401047,4.1309 -5.324731,4.72878 -9.351526,6.05303 -1.428639,0.46982 -2.890239,1.14693 -3.248003,1.50469 -0.745239,0.74524 -0.932585,2.53269 -1.526599,14.56519 -0.215519,4.36562 -0.475427,8.31529 -0.577569,8.77703 -0.211831,0.9576 -1.229529,1.60789 -2.066671,1.32057 z"
       id="path7218"
       inkscape:connector-curvature="0" />
    <path
       style="fill:#ffffff;fill-opacity:0.99607843;stroke:#ffffff;stroke-width:0.37797621;stroke-opacity:1"
       d="m 51.265874,173.87667 c -0.629214,-0.46009 -0.674413,-1.71093 -0.694111,-19.20803 l -0.02106,-18.71589 1.596052,-3.0678 c 1.93794,-3.72497 4.615658,-6.50429 7.755987,-8.05027 2.310906,-1.13765 8.34,-2.61218 10.719374,-2.62162 1.06384,-0.004 1.820368,-0.54906 5.038826,-3.62892 2.928892,-2.80276 4.443889,-3.93762 6.685719,-5.00818 2.745243,-1.31096 3.098747,-1.38382 6.678424,-1.37643 4.572685,0.009 6.435293,0.61918 11.810145,3.86614 l 3.70331,2.23717 3.01563,-0.33348 c 4.84239,-0.5355 5.79945,-0.25802 8.88893,2.57718 3.28969,3.01894 3.98776,3.31036 6.71981,2.80532 4.33469,-0.80131 6.49471,-0.33612 8.63197,1.85902 1.98013,2.03376 2.43776,5.63699 1.05877,8.3365 -0.26549,0.51972 -1.01921,1.45521 -1.67492,2.07887 -1.17341,1.11605 -1.27378,1.13766 -6.36485,1.37046 -2.84494,0.1301 -5.20917,0.25766 -5.25383,0.28349 -0.59888,0.34629 -0.90613,2.88579 -1.22377,10.11454 -0.56566,12.87327 -0.74521,14.75967 -1.49276,15.68284 -0.82741,1.02179 -2.13416,0.68394 -2.46583,-0.63753 -0.12981,-0.51721 -0.57899,-4.2956 -0.99817,-8.39643 -0.41918,-4.10083 -0.93417,-8.10287 -1.14441,-8.89341 -0.21856,-0.82178 -1.03776,-2.09282 -1.91281,-2.96788 -2.25411,-2.25409 -4.83072,-3.28812 -9.24694,-3.71093 -3.732731,-0.35736 -3.735941,-0.35694 -5.813652,0.77476 -7.337837,3.99676 -8.762491,4.10923 -14.95813,1.18086 -2.275592,-1.07556 -4.908471,-2.06125 -5.850845,-2.19042 l -1.713408,-0.23485 -4.121279,3.87513 c -4.111768,3.86618 -5.228939,4.56764 -10.586995,6.64752 -1.200576,0.46603 -2.049463,1.07376 -2.327407,1.66624 -0.322414,0.68726 -1.641343,18.81555 -1.641343,22.55975 0,0.57355 -1.068904,1.61842 -1.655649,1.61842 -0.257249,0 -0.770593,-0.22146 -1.140767,-0.49214 z"
       id="path7220"
       inkscape:connector-curvature="0" />
    <path
       style="fill:#ffffff;fill-opacity:0.99607843;stroke:#ffffff;stroke-width:0.37797621;stroke-opacity:1"
       d="m 51.023878,173.78425 c -0.379495,-0.45726 -0.492461,-4.6756 -0.518753,-19.37128 l -0.03361,-18.78672 1.700893,-2.9929 c 3.711064,-6.53002 8.284151,-9.2992 17.111966,-10.36197 2.39449,-0.28827 2.45482,-0.32509 6.463202,-3.94452 2.640116,-2.38394 4.927693,-4.08471 6.582963,-4.89433 2.412061,-1.17978 2.741268,-1.23974 6.694536,-1.21932 4.892192,0.0253 6.495283,0.53664 11.903845,3.79722 l 3.46133,2.08667 3.84572,-0.25729 c 4.69952,-0.31441 5.45471,-0.046 9.10999,3.23726 l 2.61842,2.35197 3.42921,-0.28768 c 4.55152,-0.38184 4.98644,-0.33333 6.86104,0.76526 3.81124,2.23354 4.6293,7.27461 1.78803,11.0183 -1.44504,1.90401 -2.86081,2.23126 -10.21349,2.36085 l -2.34778,0.0414 -0.37013,1.41741 c -0.20357,0.77957 -0.55232,5.58459 -0.77501,10.67782 -0.46152,10.55622 -0.64349,12.32449 -1.39053,13.51265 -0.64571,1.02698 -1.8644,1.10868 -2.37263,0.15905 -0.20351,-0.38027 -0.63812,-3.14422 -0.96578,-6.14211 -1.4042,-12.84738 -1.39621,-12.81481 -3.66674,-14.95387 -2.44428,-2.30273 -6.23411,-3.53703 -10.860263,-3.53703 -1.770298,0 -2.688575,0.30263 -6.00032,1.97746 -3.450565,1.74503 -4.185222,1.97823 -6.25038,1.98401 -1.975959,0.006 -2.96027,-0.26887 -6.32355,-1.76289 -2.190824,-0.97321 -4.777907,-1.96954 -5.749076,-2.21409 l -1.76576,-0.44462 -4.078306,3.73712 c -4.605957,4.22064 -5.619808,4.90159 -9.42063,6.3274 -1.483069,0.55634 -2.965299,1.30857 -3.293843,1.67161 -0.465097,0.51392 -0.725262,2.53966 -1.17508,9.14962 -1.056413,15.52373 -0.962311,14.70024 -1.726531,15.10923 -0.990338,0.53002 -1.713285,0.46269 -2.272953,-0.21167 z"
       id="path7222"
       inkscape:connector-curvature="0" />
    <path
       style="fill:#ffffff;fill-opacity:0.99607843;stroke:#ffffff;stroke-width:0.37797621;stroke-opacity:1"
       d="M 50.990268,173.74398 C 50.570102,173.2379 50.4468,169.58026 50.341465,154.4977 l -0.130048,-18.62146 1.404791,-2.512 c 3.936003,-7.03823 7.771146,-9.60964 16.409768,-11.00251 3.869301,-0.62388 3.372882,-0.33765 8.851392,-5.10342 1.576176,-1.37112 3.933677,-3.07201 5.23889,-3.77976 2.308175,-1.25161 2.492063,-1.28682 6.71983,-1.28682 5.253759,0 6.70219,0.43685 11.845212,3.57257 l 3.66239,2.23295 4.07015,-0.21471 c 4.80627,-0.25355 5.1932,-0.11159 9.03694,3.31563 l 2.56844,2.29011 2.60362,-0.25573 c 4.95153,-0.48633 6.21798,-0.35332 7.92505,0.83238 3.08443,2.14238 4.11953,6.24282 2.41701,9.57473 -1.55534,3.04387 -3.38352,3.76385 -9.59431,3.77847 -3.64503,0.009 -3.84181,0.0501 -4.07104,0.85946 -0.13248,0.46775 -0.41025,3.9971 -0.61727,7.84301 -0.70344,13.06803 -1.02907,16.28206 -1.72788,17.05423 -0.75706,0.83655 -1.77209,0.91938 -2.37429,0.19377 -0.23593,-0.28428 -0.8633,-4.3239 -1.39414,-8.97693 -0.63726,-5.58589 -1.20237,-8.99693 -1.66337,-10.04031 -1.40556,-3.18125 -6.05575,-5.45388 -11.34723,-5.54561 -3.145231,-0.0545 -3.292281,-0.016 -6.99255,1.83193 -3.471098,1.73346 -3.995835,1.88662 -6.42559,1.87544 -2.313218,-0.0106 -3.144774,-0.23316 -6.614697,-1.77001 -2.182876,-0.96682 -4.715767,-1.92566 -5.628643,-2.13077 l -1.659779,-0.37293 -2.875822,2.72052 c -4.612984,4.36387 -6.132536,5.44174 -10.072039,7.14446 -3.28716,1.42077 -3.752488,1.74031 -4.015653,2.75753 -0.163713,0.6328 -0.616818,5.94278 -1.006901,11.79994 -0.473956,7.11653 -0.868595,10.84141 -1.189582,11.22818 -0.632548,0.76217 -2.052918,0.73798 -2.703846,-0.0461 z"
       id="path7224"
       inkscape:connector-curvature="0" />
    <path
       style="fill:#ffffff;fill-opacity:0.99607843;stroke:#ffffff;stroke-width:0.37797621;stroke-opacity:1"
       d="m 50.777305,173.89634 c -0.168185,-0.25986 -0.358206,-8.98735 -0.42227,-19.39444 l -0.116478,-18.92196 1.574827,-2.7315 c 3.439427,-5.96561 7.524858,-8.92832 13.971111,-10.1317 5.700273,-1.06411 5.877899,-1.14312 9.356336,-4.16157 4.046908,-3.51175 7.273774,-5.66589 9.315857,-6.21894 0.887029,-0.24023 3.250566,-0.34898 5.551861,-0.25546 3.637641,0.14784 4.270035,0.28764 6.85549,1.51547 1.566521,0.74394 3.845381,1.99656 5.064171,2.78362 l 2.21594,1.431 4.15776,-0.0962 c 2.28677,-0.0529 4.59946,0.0719 5.13932,0.27738 0.53987,0.20548 2.31117,1.50354 3.93622,2.88457 2.701,2.29541 3.07098,2.49413 4.3101,2.31496 5.59287,-0.80868 7.4132,-0.58733 9.48135,1.1529 3.41033,2.86961 3.5367,8.35291 0.26292,11.40786 -1.24737,1.16399 -3.09307,1.55367 -7.44385,1.57161 -1.97493,0.008 -3.7899,0.14147 -4.03328,0.29628 -0.70449,0.44813 -0.83277,1.55682 -1.47129,12.71554 -0.66585,11.63648 -0.95381,13.19866 -2.4653,13.37435 -0.53751,0.0625 -1.18377,-0.13517 -1.43612,-0.43924 -0.25236,-0.30407 -0.86671,-3.87803 -1.36523,-7.94214 -1.3896,-11.32855 -1.40139,-11.36862 -4.00405,-13.59639 -2.101,-1.79836 -4.38258,-2.54433 -8.52922,-2.78865 l -3.460641,-0.2039 -3.909889,1.82772 c -6.018553,2.81343 -6.969105,2.76682 -15.438161,-0.75694 -1.767038,-0.73522 -3.653449,-1.33962 -4.192021,-1.34312 -0.716444,-0.005 -2.035054,0.96576 -4.913691,3.61615 -3.360293,3.09386 -4.551582,3.92097 -8.163184,5.66769 -2.325796,1.12485 -4.327623,2.20521 -4.448506,2.40081 -0.277087,0.44833 -0.778685,6.09406 -1.362379,15.33429 -0.500671,7.92594 -0.781624,8.88244 -2.609006,8.88244 -0.6066,0 -1.240515,-0.21261 -1.408697,-0.47247 z"
       id="path7226"
       inkscape:connector-curvature="0" />
    <path
       style="fill:#ffffff;fill-opacity:0.99607843;stroke:#ffffff;stroke-width:0.37797621;stroke-opacity:1"
       d="m 51.558606,174.35396 c -0.513307,-0.19406 -0.884719,-0.75721 -1.030002,-1.56174 -0.12497,-0.69202 -0.249272,-9.354 -0.276225,-19.24883 -0.05462,-20.0489 -0.264276,-18.29155 2.705698,-22.67891 1.836846,-2.71346 4.774811,-5.34903 7.268168,-6.52008 1.079391,-0.50696 3.997478,-1.36659 6.484636,-1.9103 4.947001,-1.08144 5.250979,-1.24394 10.407956,-5.56412 1.767039,-1.48031 4.284835,-3.20126 5.595104,-3.82432 2.333012,-1.10941 2.477702,-1.1291 6.992551,-0.95163 5.192189,0.20409 5.773756,0.38993 11.068708,3.53698 l 3.43466,2.04137 4.50289,10e-4 c 5.08692,0.002 5.15458,0.027 9.03861,3.39427 l 2.26786,1.96613 3.67717,-0.24081 c 4.74446,-0.31071 6.19126,0.0825 8.15941,2.21773 3.10624,3.36987 2.48194,9.21617 -1.21752,11.40149 -0.83127,0.49104 -2.35116,0.73452 -5.71071,0.91482 -2.51789,0.13513 -4.76394,0.36062 -4.99123,0.5011 -0.56374,0.34841 -0.77355,2.30351 -1.43505,13.37231 -0.31315,5.23982 -0.78082,10.17241 -1.03927,10.9613 -0.42348,1.2926 -0.59882,1.43435 -1.77427,1.43435 -1.57992,0 -1.48605,0.33929 -2.79475,-10.103 -0.60875,-4.85734 -1.18555,-7.97164 -1.68595,-9.10287 -1.41154,-3.19102 -4.99743,-4.9794 -10.83074,-5.40159 -3.028251,-0.21917 -3.045101,-0.21526 -6.81551,1.58258 -6.051966,2.88574 -6.998134,2.8285 -16.722077,-1.01172 -3.736922,-1.4758 -3.359504,-1.61092 -8.562343,3.06543 -3.035641,2.72846 -4.51214,3.73483 -7.841903,5.34497 -2.256168,1.09099 -4.180647,2.24673 -4.276616,2.5683 -0.18628,0.62417 -0.667436,6.26995 -1.370553,16.08171 -0.238355,3.32619 -0.587938,6.34138 -0.776848,6.70041 -0.498253,0.94697 -1.530001,1.38176 -2.451854,1.03325 z"
       id="path7228"
       inkscape:connector-curvature="0" />
    <path
       style="fill:#ffffff;fill-opacity:0.99607843;stroke:#ffffff;stroke-width:0.37797621;stroke-opacity:1"
       d="m 51.099416,174.05177 c -0.647649,-0.64765 -0.712941,-1.9292 -0.958037,-18.80431 -0.216916,-14.93473 -0.171019,-18.41341 0.261813,-19.84411 1.168635,-3.86282 6.085329,-9.42055 9.864611,-11.15077 1.127376,-0.51613 3.97682,-1.36788 6.332101,-1.89278 4.677727,-1.04248 5.553514,-1.51668 11.008518,-5.96058 1.620539,-1.32017 3.868206,-2.86668 4.994818,-3.43669 1.972609,-0.99805 2.227162,-1.03126 6.880942,-0.89757 5.393009,0.15493 6.467163,0.50245 12.073488,3.90612 l 2.79511,1.69695 4.2618,-0.0795 c 4.86887,-0.0908 5.41508,0.11496 9.31928,3.51071 l 2.16693,1.88474 4.11695,-0.23573 c 3.87425,-0.22184 4.21722,-0.18171 5.81784,0.68083 3.66285,1.97382 5.02298,6.81586 2.96911,10.56997 -1.35531,2.47726 -3.13053,3.20372 -8.631,3.53202 -3.3117,0.19766 -4.55227,0.40775 -4.70133,0.7962 -0.22877,0.59617 -0.81372,7.89184 -1.17747,14.68588 -0.30521,5.70041 -0.82626,9.62188 -1.36468,10.27063 -0.229,0.27593 -0.91002,0.50169 -1.51337,0.50169 -1.42886,0 -1.58228,-0.44931 -2.38757,-6.99256 -0.89789,-7.29562 -1.63506,-11.41399 -2.25563,-12.60167 -1.44974,-2.77458 -4.50622,-4.36725 -9.56056,-4.98179 -3.337547,-0.40581 -3.535394,-0.38689 -5.748882,0.5496 -1.260814,0.53343 -3.339931,1.41276 -4.620255,1.95407 -3.385299,1.43128 -5.994704,1.18682 -11.783954,-1.10396 -2.46039,-0.97357 -4.926685,-1.7696 -5.480656,-1.76896 -0.730375,8e-4 -2.131801,0.98289 -5.098637,3.57285 -3.100121,2.70632 -5.086009,4.08044 -8.196459,5.67147 -2.307127,1.18012 -4.188227,2.38818 -4.294968,2.75825 -0.104457,0.36216 -0.37302,3.20981 -0.59681,6.32812 -1.034412,14.41363 -1.236395,16.14819 -1.965277,16.87707 -0.884783,0.88478 -1.645645,0.88592 -2.527766,0.004 z"
       id="path7230"
       inkscape:connector-curvature="0" />
    <path
       style="fill:#ffffff;fill-opacity:0.99607843;stroke:#ffffff;stroke-width:0.37797621;stroke-opacity:1"
       d="m 50.848806,173.85385 c -0.498909,-0.76143 -0.620546,-3.5977 -0.825895,-19.25782 l -0.240815,-18.36487 1.181116,-2.38132 c 1.520512,-3.0656 3.939812,-5.9783 6.648322,-8.00418 2.167779,-1.62143 4.945854,-2.70152 9.782474,-3.80333 3.406257,-0.77596 5.047835,-1.66269 9.13039,-4.93192 1.886093,-1.51035 4.378505,-3.27745 5.538692,-3.92688 2.041065,-1.14252 2.258806,-1.18079 6.718508,-1.18079 5.490456,0 7.168147,0.48273 12.071502,3.47339 l 3.29105,2.00727 4.53574,0.004 c 5.12439,0.004 5.05903,-0.0191 8.87069,3.17337 l 2.63242,2.20479 4.26483,-0.16098 c 3.93797,-0.14864 4.37985,-0.0937 5.76556,0.71655 4.07618,2.38349 5.07595,8.08541 2.05936,11.74505 -1.38006,1.67426 -2.64486,2.06277 -8.102,2.48867 -2.49233,0.19452 -4.14753,0.49413 -4.32612,0.7831 -0.3271,0.52927 -0.57211,3.2812 -1.16305,13.06348 -0.46583,7.71137 -0.89189,10.98793 -1.52855,11.75506 -0.6251,0.75318 -2.51369,0.66823 -2.94084,-0.13229 -0.19412,-0.3638 -0.72487,-3.55298 -1.17945,-7.08705 -1.71498,-13.33314 -2.38113,-14.54213 -8.95648,-16.25478 -3.99595,-1.04081 -6.467684,-0.78263 -10.87334,1.13573 -4.793622,2.08728 -7.190172,2.23954 -11.359381,0.72171 -8.431607,-3.0696 -7.811365,-2.91253 -9.058661,-2.29406 -0.630682,0.31272 -2.507411,1.76178 -4.170506,3.22012 -2.988341,2.62044 -4.351628,3.53225 -9.375724,6.27086 -1.459632,0.79563 -2.70519,1.75687 -2.879736,2.22237 -0.169172,0.45117 -0.507373,3.71183 -0.751559,7.2459 -0.731391,10.5853 -1.198732,14.69216 -1.774235,15.59152 -0.72481,1.13268 -2.228337,1.11127 -2.984312,-0.0425 z"
       id="path7232"
       inkscape:connector-curvature="0" />
    <path
       style="fill:#ffffff;fill-opacity:0.99607843;stroke:#000000;stroke-width:0.37797621;stroke-opacity:0"
       d="m 50.778509,173.74656 c -0.593458,-0.90573 -0.67006,-2.74017 -0.810811,-19.41718 l -0.155437,-18.41696 1.448469,-2.75644 c 1.807297,-3.43929 5.630146,-7.40311 8.488598,-8.80162 1.146064,-0.56071 3.854135,-1.45644 6.017932,-1.99049 4.724498,-1.16607 6.489644,-2.02222 10.217647,-4.95588 3.527888,-2.77619 6.102848,-4.54549 7.247446,-4.97985 1.683983,-0.63905 5.123458,-0.82313 8.407477,-0.44998 3.570701,0.40573 5.987326,1.33147 9.8591,3.77671 l 2.30816,1.45773 4.70427,0.14795 c 5.31309,0.16711 5.70145,0.30636 9.22364,3.30725 l 2.2515,1.91827 h 4.59067 c 4.14367,0 4.71436,0.0834 5.86094,0.85604 3.92527,2.64524 4.86469,8.20831 1.96753,11.65139 -1.28055,1.52184 -2.71438,2.1186 -5.78809,2.40896 -6.48727,0.61283 -6.43609,0.60178 -6.76281,1.46109 -0.17165,0.4515 -0.50918,3.8824 -0.75007,7.62424 -0.62995,9.78555 -1.17976,15.38634 -1.58469,16.14296 -0.85899,1.60504 -3.01095,1.61464 -3.51818,0.0157 -0.11549,-0.36401 -0.62608,-3.63841 -1.13467,-7.27643 -1.71164,-12.24374 -2.31901,-13.49058 -7.39509,-15.18077 -3.71512,-1.23703 -7.336727,-1.26087 -10.281319,-0.0677 -1.312224,0.53173 -3.236331,1.30592 -4.275765,1.72041 -3.081655,1.22889 -5.646431,1.00117 -11.269475,-1.00056 -2.66414,-0.9484 -5.24115,-1.72437 -5.726686,-1.72437 -0.849125,0 -2.882271,1.42458 -7.442994,5.21513 -1.176216,0.97759 -3.682182,2.61134 -5.568815,3.63055 -1.886635,1.01922 -3.703111,2.15464 -4.036618,2.52316 -0.473475,0.52318 -0.762,2.68506 -1.316472,9.86414 -0.857496,11.10252 -1.017537,12.35456 -1.718762,13.44634 -0.75842,1.18082 -2.232096,1.10861 -3.056625,-0.14978 z"
       id="path7234"
       inkscape:connector-curvature="0" />
    <ellipse
       style="fill:#ffcc00;fill-opacity:0.99607843;stroke:#000000;stroke-width:2.56500006;stroke-miterlimit:4;stroke-dasharray:none;stroke-opacity:1"
       id="path7238"
       cx="34.811623"
       cy="182.09523"
       rx="5.1026788"
       ry="5.2916665" />
  </g>
</svg>
