<?xml version="1.0" encoding="UTF-8" standalone="no"?>
<!-- Created with Inkscape (http://www.inkscape.org/) -->

<svg
   xmlns:dc="http://purl.org/dc/elements/1.1/"
   xmlns:cc="http://creativecommons.org/ns#"
   xmlns:rdf="http://www.w3.org/1999/02/22-rdf-syntax-ns#"
   xmlns:svg="http://www.w3.org/2000/svg"
   xmlns="http://www.w3.org/2000/svg"
   xmlns:sodipodi="http://sodipodi.sourceforge.net/DTD/sodipodi-0.dtd"
   xmlns:inkscape="http://www.inkscape.org/namespaces/inkscape"
   width="297mm"
   height="210mm"
   viewBox="0 0 297 210"
   version="1.1"
   id="svg192"
   inkscape:version="0.92.4 (5da689c313, 2019-01-14)"
   sodipodi:docname="Beer++logo.svg">
  <defs
     id="defs186" />
  <sodipodi:namedview
     id="base"
     pagecolor="#ffffff"
     bordercolor="#666666"
     borderopacity="1.0"
     inkscape:pageopacity="0.0"
     inkscape:pageshadow="2"
     inkscape:zoom="0.69999999"
     inkscape:cx="242.04417"
     inkscape:cy="336.05938"
     inkscape:document-units="mm"
     inkscape:current-layer="layer1"
     showgrid="false"
     inkscape:lockguides="true"
     inkscape:window-width="1296"
     inkscape:window-height="704"
     inkscape:window-x="70"
     inkscape:window-y="27"
     inkscape:window-maximized="1" />
  <metadata
     id="metadata189">
    <rdf:RDF>
      <cc:Work
         rdf:about="">
        <dc:format>image/svg+xml</dc:format>
        <dc:type
           rdf:resource="http://purl.org/dc/dcmitype/StillImage" />
        <dc:title></dc:title>
      </cc:Work>
    </rdf:RDF>
  </metadata>
  <g
     inkscape:label="Capa 1"
     inkscape:groupmode="layer"
     id="layer1"
     transform="translate(0,-87)">
    <g
       id="g381"
       transform="matrix(0.26458333,0,0,0.26458333,16.933334,106.04643)">
      <g
         id="g297">
        <g
           id="g295">
          <path
             id="path293"
             d="m 286,451.29 c -5.52,0 -10,4.48 -10,10 0,5.52 4.48,10 10,10 5.52,0 10,-4.48 10,-10 0,-5.52 -4.48,-10 -10,-10 z"
             inkscape:connector-curvature="0" />
        </g>
      </g>
      <g
         id="g303">
        <g
           id="g301">
          <path
             id="path299"
             d="m 145.5,200.29 c -5.523,0 -10,4.477 -10,10 v 191 c 0,5.523 4.477,10 10,10 5.523,0 10,-4.477 10,-10 v -191 c 0,-5.523 -4.477,-10 -10,-10 z"
             inkscape:connector-curvature="0" />
        </g>
      </g>
      <g
         id="g309">
        <g
           id="g307">
          <path
             id="path305"
             d="m 225.5,200.29 c -5.523,0 -10,4.477 -10,10 v 191 c 0,5.523 4.477,10 10,10 5.523,0 10,-4.477 10,-10 v -191 c 0,-5.523 -4.477,-10 -10,-10 z"
             inkscape:connector-curvature="0" />
        </g>
      </g>
      <g
         id="g315">
        <g
           id="g313">
          <path
             id="path311"
             d="m 426.5,161 h -50 V 130.741 C 392.175,118.99 399.625,99.128 395.207,79.517 391.074,61.127 375.894,46.119 357.439,42.172 347.628,40.067 337.747,40.812 328.744,44.235 319.716,30.002 303.862,21 286.5,21 279.956,21 273.561,22.269 267.648,24.711 250.91,8.922 228.843,0 206,0 175.784,0 147.604,15.393 130.97,40.579 78.7,37.687 35.5,79.156 35.5,130.29 v 120 c 0,16.542 13.682,30 30.5,30 3.689,0 7.224,-0.671 10.5,-1.893 V 462 c 0,27.57 22.43,50 50,50 h 200 c 27.57,0 50,-22.43 50,-50 v -30 h 50 c 27.57,0 50,-22.43 50,-50 V 211 c 0,-27.57 -22.43,-50 -50,-50 z m -70,291 h -30.51 c -5.523,0 -10,4.477 -10,10 0,5.523 4.477,9.9 10,9.9 h 28.79 C 350.652,483.539 339.536,492 326.5,492 h -200 c -13.036,0 -24.152,-8.361 -28.28,-20 h 147.79 c 5.523,0 10,-4.477 10,-10 0,-5.523 -4.477,-10 -10,-10 H 96.5 V 250.07 179.506 c 22.463,-3.391 41.914,-17.538 52.14,-38.505 2.086,0 3.924,0.722 5.309,2.081 11.286,11.098 26.22,17.209 42.051,17.209 16.408,0 31.725,-6.495 43.135,-18.295 0.61,-0.632 1.473,-0.995 2.365,-0.995 15.567,0 25.753,3.325 30.277,9.881 3.729,5.405 3.726,12.915 3.723,18.95 v 40.459 c 0,13.036 8.361,24.152 20,28.28 v 162.72 c 0,5.523 4.477,10 10,10 5.523,0 10,-4.477 10,-10 V 238.57 c 11.639,-4.128 20,-15.243 20,-28.28 v -70.464 c 7.005,1.398 14.154,1.407 21,0.007 z M 330.033,116.947 c -3.1,-1.577 -6.796,-1.43 -9.762,0.389 -2.965,1.818 -4.772,5.046 -4.772,8.524 v 84.43 c 0,5.514 -4.486,10 -10,10 -5.514,0 -10,-4.486 -10,-10 v -40.452 c 0.003,-7.876 0.008,-19.779 -7.261,-30.315 C 279.759,127.232 264.034,121 241.5,121 c -6.29,0 -12.396,2.589 -16.749,7.099 -7.602,7.862 -17.813,12.191 -28.751,12.191 -10.553,0 -20.507,-4.073 -28.035,-11.477 C 162.832,123.774 155.969,121 148.64,121 c -7.579,0 -14.623,4.397 -17.946,11.202 -8.382,17.164 -25.35,27.927 -44.28,28.089 -5.489,0.047 -9.915,4.51 -9.915,10 v 79.525 C 76.147,255.705 71.568,260.29 66,260.29 c -5.691,0 -10.5,-4.58 -10.5,-10 v -120 c 0,-38.596 31.582,-69.852 70.407,-69.852 3.017,0 6.05,0.192 9.081,0.581 4.045,0.519 7.998,-1.471 9.993,-5.026 C 157.437,33.792 180.818,20 206,20 c 19.73,0 38.752,8.615 52.187,23.637 3.256,3.642 8.668,4.398 12.799,1.785 C 275.559,42.529 280.924,41 286.5,41 c 12.73,0 24.108,8.061 28.313,20.057 1.023,2.92 3.341,5.203 6.277,6.181 2.935,0.978 6.159,0.542 8.729,-1.182 6.816,-4.57 15.134,-6.107 23.429,-4.327 10.8,2.31 20.03,11.428 22.446,22.179 5.692,25.264 -20.205,45.988 -45.661,33.039 z M 376.5,221 h 40 v 151 h -40 z m 80,161 c 0,16.542 -13.458,30 -30,30 h -50 v -20 h 50 c 5.523,0 10,-4.477 10,-10 V 211 c 0,-5.523 -4.477,-10 -10,-10 h -50 v -20 h 50 c 16.542,0 30,13.458 30,30 z"
             inkscape:connector-curvature="0" />
        </g>
      </g>
      <g
         id="g317" />
      <g
         id="g319" />
      <g
         id="g321" />
      <g
         id="g323" />
      <g
         id="g325" />
      <g
         id="g327" />
      <g
         id="g329" />
      <g
         id="g331" />
      <g
         id="g333" />
      <g
         id="g335" />
      <g
         id="g337" />
      <g
         id="g339" />
      <g
         id="g341" />
      <g
         id="g343" />
      <g
         id="g345" />
    </g>
    <flowRoot
       xml:space="preserve"
       id="flowRoot383"
       style="font-style:normal;font-variant:normal;font-weight:normal;font-stretch:normal;font-size:40px;line-height:1.25;font-family:'Baloo Tamma';-inkscape-font-specification:'Baloo Tamma';letter-spacing:0px;word-spacing:0px;fill:#000000;fill-opacity:1;stroke:none"><flowRegion
         id="flowRegion385"
         style="font-style:normal;font-variant:normal;font-weight:normal;font-stretch:normal;font-family:'Baloo Tamma';-inkscape-font-specification:'Baloo Tamma'"><rect
           id="rect387"
           width="862.85712"
           height="188.57143"
           x="88.571426"
           y="596.55792"
           style="font-style:normal;font-variant:normal;font-weight:normal;font-stretch:normal;font-family:'Baloo Tamma';-inkscape-font-specification:'Baloo Tamma'" /></flowRegion><flowPara
         id="flowPara389" /></flowRoot>    <flowRoot
       xml:space="preserve"
       id="flowRoot391"
       style="font-style:normal;font-variant:normal;font-weight:normal;font-stretch:normal;font-size:160px;line-height:1.25;font-family:'Baloo Tamma';-inkscape-font-specification:'Baloo Tamma';letter-spacing:0px;word-spacing:0px;fill:#000000;fill-opacity:1;stroke:none"
       transform="matrix(0.26458333,0,0,0.26458333,46.037523,87)"><flowRegion
         id="flowRegion393"
         style="font-style:normal;font-variant:normal;font-weight:normal;font-stretch:normal;font-size:160px;font-family:'Baloo Tamma';-inkscape-font-specification:'Baloo Tamma'"><rect
           id="rect395"
           width="954.28571"
           height="194.28572"
           x="45.714287"
           y="587.98651"
           style="font-style:normal;font-variant:normal;font-weight:normal;font-stretch:normal;font-size:160px;font-family:'Baloo Tamma';-inkscape-font-specification:'Baloo Tamma'" /></flowRegion><flowPara
         id="flowPara397"> Beer ++</flowPara></flowRoot>    <g
       id="g559"
       transform="matrix(0.29423426,0,0,0.27200229,107.42093,136.85266)">
      <path
         id="path539"
         d="M 464,256.5 H 447.35937 C 443.38672,228.97266 419.8125,208.53125 392,208.5 h -0.61719 c -11.25781,-19.33203 -31.73828,-31.44531 -54.10156,-32 -12.28516,-28.1875 -39.64453,-46.83203 -70.36719,-47.95313 -30.72656,-1.12109 -59.375,15.47657 -73.68359,42.6875 C 187.67187,169.41016 181.85156,168.48828 176,168.5 154.65234,168.5352 135.17578,180.69531 125.76953,199.85937 116.59766,195.00781 106.375,192.48047 96,192.5 c -35.328125,0.0391 -63.960938,28.67187 -64,64 H 16 c -8.835938,0 -16,7.16406 -16,16 v 16 c 0,8.83594 7.164062,16 16,16 h 2.585938 l 28,69.9375 c 2.40625,6.08203 8.289062,10.07422 14.828124,10.0625 H 418.58594 c 6.54687,0.0234 12.4414,-3.96875 14.85547,-10.05469 L 461.41406,304.5 H 464 c 8.83594,0 16,-7.16406 16,-16 v -16 c 0,-8.83594 -7.16406,-16 -16,-16 z m -368,-48 c 10.45313,-0.0117 20.62109,3.41016 28.9375,9.74219 2.11719,1.60547 4.89453,2.04687 7.41016,1.1875 2.51171,-0.85938 4.4375,-2.91016 5.13281,-5.47266 C 142.22656,196.58594 157.99219,184.53125 176,184.5 c 6.14844,-0.0117 12.21484,1.42578 17.70312,4.19141 2.00391,1 4.33204,1.11328 6.42188,0.3164 2.08984,-0.79687 3.75,-2.42969 4.57812,-4.50781 9.96094,-24.70703 34.19532,-40.64844 60.82422,-40.01563 26.63282,0.63672 50.07813,17.71875 58.84766,42.8711 1.24219,3.53125 4.76172,5.73047 8.48047,5.29687 1.04297,-0.11328 2.09375,-0.16406 3.14453,-0.15234 18.625,0.0859 35.54297,10.875 43.48047,27.72656 1.49609,3.1836 4.89453,5.01172 8.375,4.51172 1.375,-0.17578 2.75781,-0.25391 4.14453,-0.23828 19,0.0234 35.37109,13.38672 39.19922,32 H 48 c 0.02734,-26.5 21.5,-47.97266 48,-48 z m 322.58594,160 H 61.425781 l -25.601562,-64 H 444.18359 Z M 16,288.5 v -16 h 448 v 16 z m 0,0"
         inkscape:connector-curvature="0" />
      <path
         id="path541"
         d="m 256.81193,104.2818 h 16 c -0.0664,-4.17578 1.45703,-8.218757 4.25781,-11.312506 9.6875,-12.074214 9.6875,-29.25781 0,-41.335936 -5.67578,-6.492187 -5.67578,-16.179687 0,-22.671874 4.79297,-5.816407 7.36719,-13.144531 7.26563,-20.6796863 h -16 c 0.0625,4.1796873 -1.45703,8.2304673 -4.25781,11.3359363 -9.6836,12.085937 -9.6836,29.273437 0,41.359374 2.79296,3.097657 4.3125,7.136719 4.25781,11.304688 0.0859,4.175781 -1.44141,8.222655 -4.25781,11.304693 -4.80079,5.816397 -7.37891,13.152343 -7.26563,20.695311 z m 0,0"
         inkscape:connector-curvature="0" />
      <path
         id="path543"
         d="m 382.20728,162.6453 h 16 c -0.0664,-4.17578 1.45703,-8.21876 4.25781,-11.31251 9.6875,-12.07422 9.6875,-29.25782 0,-41.33596 -5.67578,-6.49219 -5.67578,-16.179689 0,-22.671876 4.79297,-5.816407 7.36719,-13.144531 7.26563,-20.679686 h -16 c 0.0625,4.179687 -1.45703,8.230467 -4.25781,11.335936 -9.6836,12.085937 -9.6836,29.273436 0,41.359386 2.79296,3.09766 4.3125,7.13672 4.25781,11.30469 0.0859,4.17578 -1.44141,8.22266 -4.25781,11.3047 -4.80079,5.8164 -7.37891,13.15235 -7.26563,20.69532 z m 0,0"
         inkscape:connector-curvature="0" />
      <path
         id="path545"
         d="m 149.40108,135.409 h 16 c -0.0664,-4.17578 1.45703,-8.21876 4.25781,-11.31251 9.6875,-12.07422 9.6875,-29.257822 0,-41.335948 -5.67578,-6.492187 -5.67578,-16.179687 0,-22.671874 4.79297,-5.816407 7.36719,-13.144531 7.26563,-20.679686 h -16 c 0.0625,4.179687 -1.45703,8.230467 -4.25781,11.335936 -9.6836,12.085937 -9.6836,29.273437 0,41.359374 2.79297,3.097657 4.3125,7.136719 4.25781,11.304688 0.0859,4.17578 -1.44141,8.22266 -4.25781,11.3047 -4.80078,5.8164 -7.37891,13.15235 -7.26563,20.69532 z m 0,0"
         inkscape:connector-curvature="0" />
    </g>
    <path
       style="fill:#ffcc00;fill-opacity:0.99516913;stroke:#ffdf00;stroke-width:2.02030516;stroke-opacity:1"
       d="m 178.12347,559.97233 c -3.64665,-1.79737 -8.48153,-5.86778 -10.74418,-9.04538 l -4.1139,-5.77744 h 75.58589 c 70.66061,0 75.80376,-0.24074 78.92947,-3.69461 4.38647,-4.847 4.24361,-11.02707 -0.35103,-15.18516 -3.30025,-2.98668 -11.81842,-3.34359 -79.80205,-3.34359 H 161.52023 V 387.79826 252.67036 l 10.48413,-3.42918 c 13.68261,-4.47536 25.97322,-13.07169 33.688,-23.56217 3.41272,-4.64057 6.5051,-9.3379 6.87197,-10.43851 0.36688,-1.10061 5.16922,1.19439 10.67189,5.1 12.81218,9.09368 23.11483,12.38267 38.42747,12.26747 13.84997,-0.10419 28.89627,-5.75279 37.64797,-14.1336 4.79356,-4.59041 6.58904,-5.07543 14.68203,-3.96617 14.13405,1.93729 20.75511,6.21238 23.18775,14.97188 1.1567,4.16509 2.11157,19.84626 2.12192,34.84702 0.021,30.36327 2.24321,37.27054 14.17524,44.0598 l 6.00598,3.41737 0.0127,84.27666 c 0.0123,81.24724 0.15324,84.35182 3.92057,86.36805 5.48115,2.93342 9.42974,2.60736 13.12049,-1.08339 2.78293,-2.78293 3.17634,-13.44279 3.18754,-86.36804 l 0.0121,-83.19328 6.00596,-3.41737 c 3.3033,-1.87955 7.83984,-6.42524 10.0812,-10.10153 3.71334,-6.09058 4.07591,-10.13777 4.08278,-45.57502 l 0.008,-38.89088 h 10.10152 10.10153 v 119.198 c 0,97.64101 -0.48437,119.198 -2.6783,119.198 -1.47304,0 -4.65502,2.10415 -7.07107,4.6759 -3.65909,3.89493 -4.39277,7.07293 -4.39277,19.02766 0,17.47341 0.90134,20.06076 8.32605,23.90023 5.22535,2.70211 5.81609,4.02834 5.81609,13.05725 v 10.04964 H 403.091 c -18.57065,0 -23.37782,2.28489 -23.37782,11.11168 0,8.54832 4.92698,11.11168 21.35751,11.11168 8.25438,0 15.00798,0.73771 15.00798,1.63935 0,0.90165 -1.94703,3.72925 -4.32673,6.28356 -9.50076,10.19787 -10.28268,10.26313 -122.38252,10.21383 -92.22981,-0.0406 -105.40067,-0.43291 -111.24595,-3.31392 z m 181.8443,-22.0915 c 3.11957,-6.84673 -2.59198,-14.95468 -10.53466,-14.95468 -10.54756,0 -13.88018,14.70538 -4.39963,19.41366 6.26282,3.11028 12.30786,1.3054 14.93429,-4.45898 z M 216.78454,480.82469 c 3.05723,-3.37819 3.31503,-12.86815 2.83851,-104.49145 l -0.52413,-100.7758 -4.83437,-2.40986 c -6.08054,-3.03106 -13.52665,-0.0501 -15.16986,6.073 -0.63459,2.36468 -1.16621,47.71073 -1.18138,100.76899 -0.0268,93.79498 0.0844,96.58159 4.01302,100.51018 5.03971,5.03971 10.48367,5.15876 14.85821,0.32494 z m 80.09613,-0.32494 c 3.93023,-3.93025 4.04061,-6.73435 4.04061,-102.64942 0,-106.6476 0.0711,-105.94708 -10.75794,-105.94708 -11.90896,0 -11.46542,-4.06752 -11.46542,105.14416 0,90.31241 0.32704,100.46509 3.34358,103.79833 4.35658,4.81397 9.80628,4.68689 14.83917,-0.34599 z"
       inkscape:connector-curvature="0"
       id="path5341"
       transform="matrix(0.26458333,0,0,0.26458333,0,87)" />
    <rect
       style="fill:#ffffff;fill-opacity:1;stroke:#ffffff;stroke-width:0.26722002;stroke-opacity:0"
       id="rect5501"
       width="5.1471744"
       height="26.533297"
       x="132.4167"
       y="180.72847"
       ry="0.05903722" />
    <path
       style="fill:#ffffff;fill-opacity:1;stroke:#ffffff;stroke-width:0.25253814;stroke-opacity:1"
       d="m 499.58868,403.87275 v -50.50763 h 9.21764 9.21764 v 50.50763 50.50763 h -9.21764 -9.21764 z m 17.67767,-0.003 v -49.75341 l -8.39689,0.0665 -8.3969,0.0665 -0.0648,49.3712 c -0.0356,27.15417 -0.0108,49.51326 0.0552,49.68688 0.0926,0.24375 2.02067,0.31568 8.46166,0.31568 h 8.34169 z"
       inkscape:connector-curvature="0"
       id="path5558"
       transform="matrix(0.26458333,0,0,0.26458333,0,87)" />
    <path
       style="fill:#ffffff;fill-opacity:1;stroke:#ffffff;stroke-width:0.17857143;stroke-opacity:0.99033813"
       d=""
       id="path5607"
       inkscape:connector-curvature="0"
       transform="matrix(0.26458333,0,0,0.26458333,0,87)" />
    <rect
       style="fill:#ffffff;fill-opacity:1;stroke:#ffffff;stroke-width:0.26458332;stroke-opacity:0.99033813"
       id="rect5621"
       width="0.25215042"
       height="0.85486323"
       x="132.33891"
       y="206.26208" />
    <rect
       style="fill:#ffffff;fill-opacity:1;stroke:#ffffff;stroke-width:0.27850223;stroke-opacity:0.99033813"
       id="rect5623"
       width="5.3560486"
       height="4.3908348"
       x="132.3089"
       y="205.23694" />
    <ellipse
       style="fill:#ffffff;fill-opacity:1;stroke:#ffffff;stroke-width:0.35936457;stroke-opacity:0.99033813"
       id="path5629"
       cx="135.12146"
       cy="209.31889"
       rx="1.7065654"
       ry="2.7756436" />
    <ellipse
       style="fill:#ffffff;fill-opacity:1;stroke:#ffffff;stroke-width:0.35936457;stroke-opacity:0.99033813"
       id="path5629-6"
       cx="134.90968"
       cy="208.80106"
       rx="1.7065654"
       ry="2.7756436" />
    <ellipse
       style="fill:#ffffff;fill-opacity:1;stroke:#ffffff;stroke-width:0.35936457;stroke-opacity:0.99033813"
       id="path5629-6-7"
       cx="135.87314"
       cy="209.3022"
       rx="1.7065654"
       ry="2.7756436" />
    <ellipse
       style="fill:#ffffff;fill-opacity:1;stroke:#ffffff;stroke-width:0.35936457;stroke-opacity:0.99033813"
       id="path5629-6-5"
       cx="135.90656"
       cy="210.30446"
       rx="1.7065654"
       ry="2.7756436" />
    <ellipse
       style="fill:#ffffff;fill-opacity:1;stroke:#ffffff;stroke-width:0.35936457;stroke-opacity:0.99033813"
       id="path5629-6-3"
       cx="135.93996"
       cy="210.37126"
       rx="1.7065654"
       ry="2.7756436" />
    <ellipse
       style="fill:#ffffff;fill-opacity:1;stroke:#ffffff;stroke-width:0.26785412;stroke-opacity:0.99033813"
       id="path5629-6-56"
       cx="135.23837"
       cy="212.0584"
       rx="1.7523206"
       ry="1.5017555" />
    <ellipse
       style="fill:#ffffff;fill-opacity:1;stroke:#ffffff;stroke-width:0.20870104;stroke-opacity:0.99033813"
       id="path5629-6-2"
       cx="135.17157"
       cy="212.49272"
       rx="1.7818972"
       ry="0.89656693" />
    <ellipse
       style="fill:#ffffff;fill-opacity:1;stroke:#ffffff;stroke-width:0.28175822;stroke-opacity:0.99033813"
       id="path5629-6-9"
       cx="132.96661"
       cy="212.84351"
       rx="3.7498901"
       ry="0.77651662" />
    <ellipse
       style="fill:#ffffff;fill-opacity:1;stroke:#ffffff;stroke-width:0.35614589;stroke-opacity:0.99033813"
       id="path5629-6-1"
       cx="132.73273"
       cy="212.4426"
       rx="4.0801921"
       ry="1.1402272" />
    <ellipse
       style="fill:#ffffff;fill-opacity:1;stroke:#ffffff;stroke-width:0.35614589;stroke-opacity:0.99033813"
       id="path5629-6-1-0"
       cx="132.265"
       cy="212.8101"
       rx="4.0801921"
       ry="1.1402272" />
    <ellipse
       style="fill:#ffffff;fill-opacity:1;stroke:#ffffff;stroke-width:0.35614589;stroke-opacity:0.99033813"
       id="path5629-6-1-9"
       cx="132.2316"
       cy="212.94373"
       rx="4.0801921"
       ry="1.1402272" />
    <ellipse
       style="fill:#ffffff;fill-opacity:1;stroke:#ffffff;stroke-width:0.35614589;stroke-opacity:0.99033813"
       id="path5629-6-1-3"
       cx="130.82843"
       cy="213.24442"
       rx="4.0801921"
       ry="1.1402272" />
    <ellipse
       style="fill:#ffffff;fill-opacity:1;stroke:#ffffff;stroke-width:0.35614589;stroke-opacity:0.99033813"
       id="path5629-6-1-6"
       cx="132.59909"
       cy="212.74329"
       rx="4.0801921"
       ry="1.1402272" />
    <ellipse
       style="fill:#ffffff;fill-opacity:1;stroke:#ffffff;stroke-width:0.35614589;stroke-opacity:0.99033813"
       id="path5629-6-1-6-0"
       cx="131.26276"
       cy="213.27782"
       rx="4.0801921"
       ry="1.1402272" />
    <ellipse
       style="fill:#ffffff;fill-opacity:1;stroke:#ffffff;stroke-width:0.35614589;stroke-opacity:0.99033813"
       id="path5629-6-1-6-6"
       cx="129.45868"
       cy="213.74554"
       rx="4.0801921"
       ry="1.1402272" />
    <rect
       style="fill:#ffffff;fill-opacity:1;stroke:#ffffff;stroke-width:0.26458332;stroke-opacity:0.99033813"
       id="rect5799"
       width="2.2049735"
       height="3.0735996"
       x="132.29842"
       y="208.76764" />
    <rect
       style="fill:#ffffff;fill-opacity:1;stroke:#ffffff;stroke-width:0.26458332;stroke-opacity:0.99033813"
       id="rect5801"
       width="0.06681738"
       height="0.16704345"
       x="144.526"
       y="212.54283" />
    <rect
       style="fill:#000000;fill-opacity:1;stroke:#000000;stroke-width:0.23667291;stroke-opacity:0"
       id="rect5805"
       width="0.64212173"
       height="32.061394"
       x="131.75798"
       y="178.91571" />
    <path
       style="fill:#ffffff;fill-opacity:1;stroke:#ffffff;stroke-width:0.35714287;stroke-opacity:0"
       d="m 508.6795,371.70466 c 0,-3.86905 0.0414,-4.10714 0.71429,-4.10714 0.67288,0 0.71428,0.23809 0.71428,4.10714 0,3.86905 -0.0414,4.10714 -0.71428,4.10714 -0.67288,0 -0.71429,-0.23809 -0.71429,-4.10714 z"
       id="path5807"
       inkscape:connector-curvature="0"
       transform="matrix(0.26458333,0,0,0.26458333,0,87)" />
    <rect
       style="fill:#ffffff;fill-opacity:1;stroke:#ffffff;stroke-width:0.26458332;stroke-opacity:1"
       id="rect5815"
       width="4.9728088"
       height="26.388474"
       x="132.59106"
       y="180.72847" />
    <rect
       style="fill:#ffffff;fill-opacity:1;stroke:#ffffff;stroke-width:0.26458332;stroke-opacity:1"
       id="rect5817"
       width="0.66817379"
       height="0.26726952"
       x="168.91434"
       y="202.3866" />
    <rect
       style="fill:#ffcc00;fill-opacity:0.99607843;stroke:#ffcc00;stroke-width:0.26458332;stroke-opacity:0.99607843"
       id="rect5819"
       width="7.2130237"
       height="22.851585"
       x="103.80981"
       y="198.76418" />
    <path
       style="fill:#ffffff;fill-opacity:0.99607843;stroke:#ffcc00;stroke-width:1.42857146;stroke-opacity:0.99607843"
       d="m 123.47274,328.78427 c -2.77616,-2.77616 -2.85667,-4.75012 -2.84019,-69.64286 0.0185,-73.0157 0.14528,-74.36363 8.45908,-89.96192 12.00093,-22.51604 36.37509,-36.10951 64.74722,-36.10951 11.80696,0 12.96342,-0.60827 19.39727,-10.20247 23.05666,-34.382277 71.98933,-39.856878 103.25162,-11.55182 4.2346,3.83404 8.7638,7.36098 10.06487,7.83765 1.30109,0.47667 6.87449,-0.70137 12.38534,-2.61785 8.9477,-3.11171 10.81407,-3.31418 17.44369,-1.89238 8.05446,1.72737 16.4196,8.06553 19.94517,15.11218 5.31153,10.61629 10.22217,12.55871 19.70284,7.79355 8.08636,-4.06436 14.57498,-4.75236 22.53266,-2.38918 7.75219,2.30215 16.53276,10.08149 19.11109,16.93189 3.8616,10.25994 0.58297,24.63284 -7.29542,31.98168 -7.82165,7.29592 -22.7735,9.74564 -33.11347,5.42532 -7.18126,-3.00052 -11.36487,-2.67539 -14.97133,1.1635 -3.05367,3.25049 -3.10615,4.06803 -3.10615,48.37877 0,43.43542 -0.10758,45.20913 -2.96083,48.8365 -3.27782,4.16706 -7.89128,4.82912 -12.12328,1.73978 -2.54215,-1.85579 -2.84782,-4.56169 -3.67125,-32.50001 -0.49403,-16.76162 -1.64476,-32.87016 -2.5572,-35.79674 -4.77142,-15.30416 -20.38532,-25.98376 -40.85792,-27.94604 -15.57494,-1.49284 -21.84983,-0.0127 -29.86781,7.04494 -15.82615,13.93072 -36.83502,14.77105 -51.72373,2.06888 -8.13306,-6.93865 -14.14046,-9.57657 -21.94666,-9.63704 -9.29647,-0.072 -14.83463,3.42209 -20.72559,13.07603 -2.63699,4.32143 -6.92876,9.90741 -9.53727,12.41328 -5.90648,5.67408 -18.3844,11.5376 -26.87582,12.62927 -17.67319,2.27209 -17.15265,0.649 -17.15265,53.483 0,39.5697 -0.13122,41.60567 -2.85714,44.3316 -1.57143,1.57143 -4.46429,2.85714 -6.42857,2.85714 -1.96429,0 -4.85715,-1.28571 -6.42857,-2.85714 z"
       id="path6663"
       inkscape:connector-curvature="0"
       transform="matrix(0.26458333,0,0,0.26458333,0,87)" />
    <path
       style="fill:#ffffff;fill-opacity:0.99607843;stroke:#ffcc00;stroke-width:1.42857146;stroke-opacity:0.99607843"
       d="m 124.71909,327.85188 c -1.57937,-1.90183 -2.0403,-14.19466 -2.3703,-63.21428 -0.22531,-33.46934 0.19617,-65.8915 0.93661,-72.04926 4.05713,-33.74028 33.15275,-57.83318 70.18734,-58.1193 5.10714,-0.0395 10.69331,-0.85436 12.41371,-1.81091 1.7204,-0.95654 5.81509,-5.49166 9.09932,-10.07803 15.02982,-20.98889 41.99055,-31.686211 67.33951,-26.718556 12.05467,2.362363 21.28904,6.937786 33.18807,16.443956 10.68703,8.53789 12.89127,9.09309 22.42263,5.64775 15.4362,-5.57979 28.68827,-0.9855 37.67363,13.06087 7.05323,11.02598 9.3576,11.76309 22.54472,7.21151 12.14811,-4.19296 16.83828,-3.93409 26.29648,1.45144 7.7088,4.38941 12.0799,10.63231 12.9693,18.52306 1.56216,13.85949 -6.01164,26.75372 -17.78681,30.28165 -7.78305,2.33186 -13.15872,2.18046 -23.36863,-0.65815 -8.33704,-2.3179 -8.70842,-2.3034 -12.44442,0.48593 -2.11801,1.58132 -4.2843,4.42432 -4.81397,6.31777 -0.52965,1.89346 -1.02711,22.21597 -1.10543,45.16115 -0.15172,44.45109 -0.69521,48.363 -6.93678,49.92954 -6.84887,1.71896 -7.76232,-1.28128 -9.0556,-29.74331 -1.63139,-35.90288 -2.20765,-39.82089 -6.95863,-47.31241 -7.72193,-12.17622 -22.38404,-19.33205 -42.28202,-20.63568 -12.84265,-0.8414 -17.76434,0.79306 -31.08464,10.32302 -10.62769,7.60353 -22.04807,9.78276 -32.54012,6.20928 -2.67082,-0.90965 -9.51945,-4.88668 -15.21917,-8.83784 -8.91592,-6.1807 -11.50942,-7.26414 -18.57143,-7.75823 -10.39244,-0.72711 -15.31728,2.33948 -25.35755,15.7896 -3.93209,5.26749 -9.63477,11.2662 -12.67261,13.33047 -6.36217,4.3232 -19.1877,9.12992 -24.36094,9.12992 -5.38087,0 -10.29277,2.75329 -12.38682,6.94324 -1.3741,2.74941 -2.09406,15.22667 -2.65753,46.05606 -0.82365,45.06484 -1.14968,47.0007 -7.9157,47.0007 -1.77188,0 -4.10388,-1.06243 -5.18222,-2.36096 z"
       id="path6665"
       inkscape:connector-curvature="0"
       transform="matrix(0.26458333,0,0,0.26458333,0,87)" />
    <path
       style="fill:#ffffff;fill-opacity:0.99607843;stroke:#ffffff;stroke-width:1.42857146;stroke-opacity:1"
       d="m 126.37552,327.41414 c -1.77394,-1.12193 -2.18082,-10.422 -2.63963,-60.33527 -0.61897,-67.3373 0.24549,-79.56575 6.5819,-93.10635 10.707,-22.88033 30.7232,-35.409 60.73543,-38.0159 l 14.36396,-1.24768 12.95635,-13.56198 c 13.96738,-14.62028 21.40335,-19.3125 36.90685,-23.288874 18.54843,-4.757342 37.32506,-0.319706 56.32422,13.311574 14.7552,10.58637 16.15288,11.02068 26.30198,8.17299 10.44614,-2.93104 20.80686,-2.10739 26.75324,2.12681 2.4251,1.72682 7.19459,6.81122 10.59886,11.29867 7.24253,9.54696 9.85745,10.2925 23.31925,6.64856 12.00128,-3.2486 20.65978,-2.23033 27.50152,3.23427 10.3528,8.26893 12.97208,20.14048 7.03615,31.8905 -6.24357,12.35899 -16.62859,16.07478 -34.59852,12.37945 -10.0648,-2.06972 -11.75608,-2.0974 -14.5926,-0.23885 -6.29538,4.1249 -6.63051,6.49481 -7.4885,52.95448 -0.85834,46.47893 -1.25317,49.14773 -7.27104,49.14773 -1.39116,0 -2.96499,-1.125 -3.49739,-2.5 -0.53241,-1.375 -1.8344,-16.49216 -2.89331,-33.59368 -1.63269,-26.36798 -2.39202,-32.05777 -4.99616,-37.43721 -5.96648,-12.32511 -19.71147,-20.79196 -38.4642,-23.69376 -15.92371,-2.46403 -23.1437,-0.63931 -38.93827,9.84095 -16.63506,11.03797 -25.06278,10.27059 -48.85869,-4.4488 -9.8754,-6.10861 -17.92759,-7.68269 -25.82388,-5.04818 -4.2888,1.43091 -8.19966,4.91953 -16.35318,14.58758 -11.69329,13.86533 -20.49059,19.377 -35.45898,22.21569 -9.51341,1.80418 -12.92022,3.98895 -14.71896,9.43918 -0.79589,2.41155 -2.01566,22.66671 -2.7106,45.01144 -0.69495,22.34473 -1.71821,41.75179 -2.2739,43.12679 -1.10184,2.72634 -4.4996,3.2184 -7.8019,1.12987 z"
       id="path6667"
       inkscape:connector-curvature="0"
       transform="matrix(0.26458333,0,0,0.26458333,0,87)" />
    <path
       style="fill:#ffffff;fill-opacity:0.99607843;stroke:#ffffff;stroke-width:1.42857146;stroke-opacity:1"
       d="m 125.34276,326.99855 c -1.87043,-2.88998 -2.30116,-123.99668 -0.48269,-135.71701 2.0859,-13.44392 8.19754,-25.81967 17.21543,-34.86033 12.86411,-12.89659 28.32837,-19.22393 51.9026,-21.23641 l 11.21964,-0.9578 12.67798,-13.19177 c 13.63149,-14.18391 21.68521,-19.46771 34.93268,-22.918239 21.58639,-5.622543 39.19022,-1.343309 62.79487,15.264529 9.3167,6.55508 10.45895,6.98702 16.4409,6.21703 27.81264,-3.58002 29.50315,-3.12935 42.10527,11.22465 4.47926,5.10194 9.27833,9.63624 10.66463,10.07623 1.38628,0.43999 7.71557,-0.44082 14.06508,-1.95736 13.03349,-3.11296 18.88728,-2.47839 26.73363,2.89803 10.14087,6.94864 13.45627,20.15895 8.01705,31.94417 -6.38176,13.82737 -15.38978,17.03327 -37.30236,13.27568 -10.01382,-1.71718 -10.07132,-1.70845 -13.88739,2.10763 -3.76423,3.76422 -3.85034,4.26804 -4.87265,28.51003 -0.57239,13.57295 -1.08858,32.7138 -1.14709,42.53523 -0.13014,21.84571 -1.6607,28.57143 -6.50187,28.57143 -1.88099,0 -3.81157,-0.63365 -4.29022,-1.40809 -0.47864,-0.77446 -1.8389,-15.07803 -3.02281,-31.78571 -1.18392,-16.7077 -2.82507,-32.94906 -3.647,-36.09192 -2.14686,-8.20899 -13.85776,-19.39601 -24.77142,-23.66329 -6.90295,-2.69908 -11.35995,-3.36392 -22.89682,-3.41551 l -14.3254,-0.0641 -13.53175,7.85715 c -12.90994,7.49609 -13.99337,7.85714 -23.57773,7.85714 -9.56771,0 -10.68993,-0.37181 -23.57143,-7.80952 -11.70518,-6.75852 -14.74837,-7.88775 -22.61248,-8.3908 l -9.08704,-0.58128 -14.48439,15.01431 c -16.07092,16.65888 -18.94723,18.51313 -34.87341,22.4816 -6.90457,1.72047 -11.9306,3.84418 -13.41848,5.66986 -2.86359,3.51374 -3.63921,11.85526 -5.34049,57.4349 -0.69428,18.60049 -1.69008,34.5112 -2.2129,35.35715 -1.30549,2.11232 -7.49586,1.94031 -8.91194,-0.24765 z"
       id="path7212"
       inkscape:connector-curvature="0"
       transform="matrix(0.26458333,0,0,0.26458333,0,87)" />
    <path
       style="fill:#ffffff;fill-opacity:0.99607843;stroke:#ffffff;stroke-width:1.42857146;stroke-opacity:1"
       d="m 125.39336,327.08042 c -1.82249,-2.82148 -2.32034,-128.32775 -0.54752,-138.02875 2.16424,-11.84291 9.42492,-25.58173 17.88312,-33.83883 12.409,-12.11399 28.16777,-18.44594 50.2574,-20.19367 l 11.65648,-0.92226 12.89388,-13.24686 c 10.26624,-10.54728 15.1296,-14.35181 23.86463,-18.66889 9.81882,-4.852729 12.3691,-5.483203 24.28827,-6.004507 17.77956,-0.777617 28.50995,2.477816 45.66613,13.854407 7.0572,4.67975 13.79556,8.67645 14.97413,8.88154 1.17857,0.20509 7.75129,-0.13597 14.60602,-0.75791 18.67071,-1.69401 20.7849,-0.95878 32.77788,11.39887 11.61682,11.97003 11.54665,11.94951 28.44892,8.31739 l 10.89808,-2.34188 7.8353,3.58712 c 10.47565,4.79591 14.46676,10.52989 15.13913,21.75016 0.421,7.02551 -0.12171,9.82874 -2.91548,15.06077 -6.26202,11.72693 -17.18858,15.0632 -37.21102,11.36186 -8.97228,-1.65862 -12.66694,-0.55463 -15.43153,4.61107 -1.02373,1.91284 -2.0975,18.54799 -2.87951,44.61011 -0.68587,22.85791 -1.93207,44.00962 -2.76934,47.00381 -1.33418,4.77114 -1.99756,5.38911 -5.36753,5 -4.8056,-0.55489 -5.10749,-2.05472 -8.08845,-40.18493 -1.35228,-17.29748 -2.98841,-29.80263 -4.20545,-32.14287 -3.37633,-6.49228 -12.59973,-14.75617 -20.83702,-18.66933 -6.72718,-3.19578 -10.16398,-3.80151 -23.89771,-4.21189 l -16.04059,-0.47932 -8.24513,4.95778 c -17.1132,10.29012 -20.09121,11.34428 -30.26411,10.71298 -8.15545,-0.50611 -11.12326,-1.56336 -22.26675,-7.93227 -14.99996,-8.57303 -25.39266,-10.8661 -31.40201,-6.92862 -1.97724,1.29553 -8.8908,7.87177 -15.36347,14.61385 -12.75345,13.28429 -19.85262,17.68664 -34.42331,21.34669 -5.14758,1.29302 -10.43833,3.54336 -11.75724,5.00073 -2.98134,3.29434 -4.33513,16.46718 -5.67006,55.17158 -1.22543,35.52947 -1.67684,38.1565 -6.65695,38.74065 -2.05857,0.24145 -4.28571,-0.4014 -4.94919,-1.42858 z"
       id="path7214"
       inkscape:connector-curvature="0"
       transform="matrix(0.26458333,0,0,0.26458333,0,87)" />
    <path
       style="fill:#ffffff;fill-opacity:0.99607843;stroke:#ffffff;stroke-width:1.42857146;stroke-opacity:1"
       d="m 124.18635,322.71284 c -0.48951,-3.33929 -0.68961,-35.69289 -0.44467,-71.8969 l 0.44534,-65.82547 6.07792,-12.26227 c 11.66847,-23.54126 30.03771,-34.80598 62.01575,-38.03041 l 12.37938,-1.24825 13.3349,-13.45983 c 20.22124,-20.41069 37.36117,-27.121366 60.9885,-23.878407 11.08977,1.522123 18.40888,4.669437 34.56404,14.862997 l 12.42944,7.84272 16.56626,-0.94617 c 16.21609,-0.92617 16.6854,-0.86731 22.20373,2.78455 3.10063,2.05189 7.36533,5.99603 9.47714,8.76475 2.11182,2.76873 6.00867,6.37458 8.6597,8.013 4.72692,2.92139 5.04463,2.93315 16.44173,0.60858 13.71332,-2.79699 18.91339,-2.09717 26.78446,3.6046 7.65691,5.54664 10.22523,10.8351 10.19641,20.99556 -0.0267,9.4335 -3.79424,17.51743 -10.4565,22.43664 -3.61347,2.66807 -6.02098,2.99145 -22.2707,2.99145 -20.1159,0 -22.12364,0.70608 -23.50207,8.26518 -0.46056,2.52558 -1.49604,22.72124 -2.3011,44.87925 -0.80504,22.158 -2.08671,41.92586 -2.84814,43.92857 -1.82987,4.81293 -8.12442,5.08494 -9.88053,0.427 -0.66652,-1.76786 -2.28997,-16.07143 -3.60769,-31.78571 -1.31771,-15.71429 -3.04663,-31.03921 -3.84201,-34.05538 -1.88414,-7.14477 -12.07076,-17.30513 -21.82872,-21.77248 -5.76432,-2.63899 -11.1135,-3.67491 -22.60748,-4.37818 l -15.05652,-0.92124 -13.38751,7.67185 c -11.92619,6.83441 -14.45649,7.73313 -23.18034,8.23332 -9.45566,0.54214 -10.30555,0.30284 -24.68534,-6.95066 -16.10583,-8.12415 -24.71435,-10.47795 -30.40624,-8.3139 -1.98789,0.75579 -10.3912,7.98279 -18.67403,16.06 -13.84032,13.49675 -15.86746,14.94333 -25.03634,17.86607 -14.36852,4.58021 -20.41015,7.33971 -21.33262,9.74364 -1.21942,3.17776 -3.3542,32.27344 -4.42755,60.34484 -0.52484,13.72606 -1.51163,26.42249 -2.19287,28.21429 -0.90483,2.37987 -2.37954,3.25783 -5.47217,3.25783 -3.88864,0 -4.30605,-0.49463 -5.12356,-6.07143 z"
       id="path7216"
       inkscape:connector-curvature="0"
       transform="matrix(0.26458333,0,0,0.26458333,0,87)" />
    <path
       style="fill:#ffffff;fill-opacity:0.99607843;stroke:#ffffff;stroke-width:1.42857146;stroke-opacity:1"
       d="m 127.75845,329.09131 c -1.17857,-0.4045 -2.61516,-1.44263 -3.19241,-2.30696 -0.57725,-0.86433 -1.0594,-32.92908 -1.07143,-71.25501 l -0.0219,-69.68351 4.98255,-10.49973 c 11.78726,-24.83928 29.90949,-36.75668 62.1603,-40.87739 l 13.57143,-1.73403 13.81158,-13.25666 c 15.29391,-14.67945 26.23099,-21.084577 40.43904,-23.682491 17.40327,-3.182152 32.08856,0.779282 55.5826,14.993701 l 13.04257,7.89105 12.57909,-1.29782 c 6.91848,-0.7138 13.34285,-1.06553 14.27638,-0.78161 0.93353,0.28391 3.52843,0.91945 5.76646,1.41231 2.25291,0.49613 8.75534,5.33161 14.56831,10.8336 11.54626,10.92856 11.05495,10.78674 28.58642,8.25195 12.93877,-1.87075 17.37861,-0.8686 25.16008,5.67908 5.82185,4.89876 8.48655,10.76694 8.54898,18.82651 0.067,8.64325 -1.0452,12.36233 -5.4583,18.2529 -5.765,7.69506 -9.7497,8.92707 -28.87308,8.92707 -13.25904,0 -17.59128,0.47952 -19.24155,2.12979 -2.4737,2.4737 -3.41095,11.28034 -4.48639,42.15592 -1.51818,43.58587 -2.28298,51.55223 -5.23234,54.50159 -2.12445,2.12444 -3.31075,2.38351 -5.51429,1.2042 -3.6557,-1.95647 -3.77284,-2.58546 -7.1298,-38.28418 -1.7139,-18.22599 -3.68301,-32.02315 -4.90856,-34.39307 -2.72282,-5.26538 -12.09348,-13.59984 -19.59135,-17.42497 -4.2921,-2.18966 -10.69215,-3.51291 -21.93759,-4.53572 -15.66786,-1.42505 -15.95256,-1.39677 -21.55718,2.14127 -14.73439,9.30142 -23.73909,12.8243 -32.64828,12.7729 -7.48655,-0.0432 -10.76295,-1.06797 -24.01678,-7.51192 -9.79593,-4.76273 -17.86809,-7.7041 -22.31558,-8.13145 l -6.96801,-0.66953 -15.52693,14.57387 c -16.63388,15.61288 -20.12497,17.87258 -35.34435,22.8776 -5.39958,1.77569 -10.92374,4.33486 -12.27592,5.68703 -2.81665,2.81667 -3.52473,9.57235 -5.76982,55.04952 -0.81456,16.5 -1.79689,31.42788 -2.18294,33.17306 -0.80062,3.61924 -4.64704,6.07704 -7.81104,4.99113 z"
       id="path7218"
       inkscape:connector-curvature="0"
       transform="matrix(0.26458333,0,0,0.26458333,0,87)" />
    <path
       style="fill:#ffffff;fill-opacity:0.99607843;stroke:#ffffff;stroke-width:1.42857146;stroke-opacity:1"
       d="m 125.76075,328.35278 c -2.37813,-1.73893 -2.54896,-6.4665 -2.62341,-72.59729 l -0.0796,-70.73721 6.03232,-11.59486 c 7.3245,-14.07862 17.44501,-24.58312 29.31397,-30.42619 8.73413,-4.2998 31.52126,-9.87281 40.51417,-9.90848 4.02081,-0.016 6.88013,-2.07521 19.04438,-13.71561 11.06983,-10.59311 16.7958,-14.88236 25.26886,-18.92857 10.37572,-4.954807 11.7118,-5.230174 25.24134,-5.202251 17.28253,0.03567 24.32233,2.340202 44.63673,14.612181 l 13.9967,8.45543 11.39757,-1.26039 c 18.30191,-2.02392 21.9191,-0.97517 33.59581,9.74054 12.43346,11.41017 15.07182,12.5116 25.39769,10.60276 16.38306,-3.02857 24.54694,-1.27035 32.62477,7.02624 7.48396,7.68665 9.21356,21.30517 4.00163,31.50804 -1.00341,1.96429 -3.8521,5.5 -6.33039,7.85715 -4.43495,4.21813 -4.81427,4.29981 -24.05611,5.17969 -10.75256,0.49169 -19.68821,0.97383 -19.857,1.07143 -2.26349,1.30882 -3.42477,10.90695 -4.62529,38.22821 -2.13792,48.65485 -2.81655,55.78455 -5.6419,59.2737 -3.1272,3.86191 -8.06608,2.58498 -9.31964,-2.40956 -0.49061,-1.95479 -2.18827,-16.23532 -3.77256,-31.73453 -1.5843,-15.4992 -3.5307,-30.625 -4.32534,-33.61287 -0.82604,-3.10594 -3.9222,-7.90989 -7.22951,-11.2172 -8.5194,-8.51941 -18.2577,-12.42754 -34.94888,-14.02555 -14.10792,-1.35068 -14.12004,-1.34907 -21.97285,2.9282 -27.73353,15.10587 -33.11807,15.53095 -56.53466,4.46309 -8.60066,-4.06511 -18.5517,-7.79053 -22.11343,-8.27872 l -6.47587,-0.88762 -15.57649,14.64614 c -15.54054,14.61233 -19.76292,17.26354 -40.01384,25.12447 -4.53761,1.76139 -7.746,4.05834 -8.7965,6.29762 -1.21857,2.59752 -6.2035,71.11388 -6.2035,85.2652 0,2.16775 -4.03995,6.11687 -6.25757,6.11687 -0.97228,0 -2.91248,-0.83703 -4.31156,-1.86006 z"
       id="path7220"
       inkscape:connector-curvature="0"
       transform="matrix(0.26458333,0,0,0.26458333,0,87)" />
    <path
       style="fill:#ffffff;fill-opacity:0.99607843;stroke:#ffffff;stroke-width:1.42857146;stroke-opacity:1"
       d="m 124.84612,328.00348 c -1.43431,-1.72824 -1.86127,-17.67158 -1.96064,-73.21429 l -0.12703,-71.00492 6.42857,-11.31177 c 14.02607,-24.68038 31.31018,-35.14658 64.67515,-39.16334 9.05004,-1.08952 9.27806,-1.22869 24.42785,-14.90843 9.97839,-9.01015 18.62435,-15.43829 24.88049,-18.498272 9.11645,-4.459008 10.3607,-4.685631 25.30223,-4.608445 18.49013,0.09552 24.54907,2.028266 44.9909,14.351707 l 13.08211,7.88661 14.53493,-0.97242 c 17.76187,-1.18831 20.61612,-0.17404 34.4313,12.23531 l 9.89637,8.88933 12.96078,-1.08729 c 17.20261,-1.44315 18.8464,-1.25981 25.9315,2.89234 14.4047,8.44171 17.49657,27.49459 6.75791,41.64397 -5.46156,7.19623 -10.81251,8.4331 -38.60217,8.92288 l -8.8735,0.15639 -1.39892,5.35714 c -0.76941,2.94643 -2.08752,21.10714 -2.92915,40.35714 -1.74436,39.89753 -2.4321,46.58075 -5.25556,51.07143 -2.44044,3.8815 -7.0465,4.19027 -8.96736,0.60113 -0.76918,-1.43724 -2.41177,-11.88367 -3.65017,-23.21428 -5.30719,-48.55703 -5.277,-48.43393 -13.85851,-56.51856 -9.23815,-8.70325 -23.56185,-13.36829 -41.04646,-13.36829 -6.69086,0 -10.16152,1.14378 -22.67837,7.47385 -13.0415,6.59539 -15.81816,7.47676 -23.62351,7.49863 -7.46819,0.0209 -11.18842,-1.01621 -23.90003,-6.66292 -8.28028,-3.67824 -18.05823,-7.44392 -21.72879,-8.36818 l -6.67374,-1.68047 -15.41407,14.12456 c -17.40834,15.952 -21.24022,18.52569 -35.60553,23.91456 -5.6053,2.10273 -11.20743,4.94577 -12.44917,6.31789 -1.75785,1.9424 -2.74115,9.59874 -4.44125,34.58127 -3.99274,58.67237 -3.63708,55.55994 -6.52547,57.10576 -3.74301,2.0032 -6.47541,1.74874 -8.59069,-0.80002 z"
       id="path7222"
       inkscape:connector-curvature="0"
       transform="matrix(0.26458333,0,0,0.26458333,0,87)" />
    <path
       style="fill:#ffffff;fill-opacity:0.99607843;stroke:#ffffff;stroke-width:1.42857146;stroke-opacity:1"
       d="m 124.71909,327.85128 c -1.58803,-1.91276 -2.05405,-15.7369 -2.45217,-72.74187 l -0.49152,-70.3803 5.30945,-9.4942 c 14.87623,-26.60118 29.37126,-36.31988 62.02117,-41.58427 14.62413,-2.35796 12.7479,-1.27618 33.45408,-19.28851 5.9572,-5.18218 14.86744,-11.61075 19.80053,-14.28572 8.72381,-4.730482 9.41882,-4.863575 25.39782,-4.863575 19.8567,0 25.33107,1.651098 44.7693,13.502635 l 13.84203,8.43951 15.38316,-0.81153 c 18.16537,-0.9583 19.62777,-0.42175 34.15521,12.53151 l 9.70745,8.65555 9.84048,-0.96653 c 18.71445,-1.83812 23.50102,-1.33539 29.95293,3.14598 11.6577,8.0972 15.56989,23.59494 9.13516,36.18797 -5.87846,11.50439 -12.78809,14.22556 -36.26196,14.28083 -13.77648,0.0324 -14.52024,0.18945 -15.38661,3.24836 -0.50072,1.76786 -1.55056,15.10715 -2.33299,29.64286 -2.65866,49.39097 -3.8894,61.53852 -6.53054,64.45694 -2.86133,3.16175 -6.69762,3.47483 -8.97365,0.73236 -0.89172,-1.07446 -3.26284,-16.34231 -5.26915,-33.92857 -2.40855,-21.11201 -4.54436,-34.00412 -6.28672,-37.94763 -5.31238,-12.02361 -22.8878,-20.61309 -42.88695,-20.95976 -11.88752,-0.20606 -12.44328,-0.0605 -26.42858,6.92381 -13.11908,6.55168 -15.10235,7.13053 -24.28571,7.08827 -8.74287,-0.0402 -11.88576,-0.88123 -25.00043,-6.6898 -8.25024,-3.65409 -17.82337,-7.27806 -21.27361,-8.05328 l -6.27318,-1.40949 -10.86925,10.28227 c -17.4349,16.49335 -23.17809,20.5672 -38.06755,27.00268 -12.42391,5.36983 -14.18263,6.57753 -15.17727,10.42216 -0.61876,2.39168 -2.33128,22.46088 -3.80561,44.59821 -1.79133,26.89709 -3.28288,40.9754 -4.49606,42.4372 -2.39073,2.88066 -7.75906,2.78922 -10.21926,-0.17407 z"
       id="path7224"
       inkscape:connector-curvature="0"
       transform="matrix(0.26458333,0,0,0.26458333,0,87)" />
    <path
       style="fill:#ffffff;fill-opacity:0.99607843;stroke:#ffffff;stroke-width:1.42857146;stroke-opacity:1"
       d="m 123.91419,328.42712 c -0.63566,-0.98214 -1.35385,-33.96795 -1.59598,-73.30181 l -0.44023,-71.5161 5.9521,-10.32378 c 12.99941,-22.54717 28.44041,-33.74481 52.8042,-38.29301 21.54434,-4.02186 22.21568,-4.32046 35.36253,-15.72879 15.2954,-13.27274 27.49143,-21.414389 35.20954,-23.504661 3.35255,-0.907959 12.2856,-1.318986 20.98346,-0.965489 13.74851,0.558766 16.13867,1.087132 25.91051,5.72776 5.92069,2.81172 14.53372,7.54605 19.14008,10.52074 l 8.3752,5.40851 15.71428,-0.36367 c 8.64286,-0.20002 17.38373,0.27175 19.42414,1.04837 2.04043,0.77663 8.73506,5.68266 14.87695,10.9023 10.2085,8.67559 11.60686,9.42665 16.29014,8.74949 21.13842,-3.05643 28.0184,-2.21985 35.83503,4.35741 12.88944,10.84575 13.36707,31.57003 0.9937,43.11632 -4.71444,4.39932 -11.69034,5.87212 -28.13424,5.93992 -7.46429,0.0308 -14.32403,0.5347 -15.24389,1.11982 -2.66261,1.69372 -3.14746,5.88404 -5.56076,48.05872 -2.51662,43.98041 -3.60495,49.8847 -9.31764,50.54875 -2.03153,0.23615 -4.47406,-0.51091 -5.42784,-1.66014 -0.95377,-1.14923 -3.27572,-14.65711 -5.15986,-30.01753 -5.25201,-42.81657 -5.2966,-42.968 -15.1334,-51.38792 -7.94073,-6.79697 -16.56399,-9.61638 -32.23621,-10.53978 l -13.0796,-0.77065 -14.77755,6.9079 c -22.74729,10.63344 -26.33994,10.45729 -58.34897,-2.86085 -6.67857,-2.77879 -13.80831,-5.06315 -15.84386,-5.07637 -2.70782,-0.0176 -7.69154,3.65011 -18.57143,13.66733 -12.70032,11.69332 -17.20283,14.81941 -30.85298,21.42119 -8.79041,4.25141 -16.35637,8.33467 -16.81325,9.07392 -1.04726,1.6945 -2.94306,23.03266 -5.14915,57.95639 -1.8923,29.95629 -2.95417,33.57143 -9.86081,33.57143 -2.29266,0 -4.68856,-0.80357 -5.32421,-1.78572 z"
       id="path7226"
       inkscape:connector-curvature="0"
       transform="matrix(0.26458333,0,0,0.26458333,0,87)" />
    <path
       style="fill:#ffffff;fill-opacity:0.99607843;stroke:#ffffff;stroke-width:1.42857146;stroke-opacity:1"
       d="m 126.86714,330.1567 c -1.94006,-0.73346 -3.34382,-2.8619 -3.89292,-5.90262 -0.47233,-2.61554 -0.94213,-35.35371 -1.044,-72.75149 -0.20643,-75.77539 -0.99884,-69.13344 10.22626,-85.71557 6.94241,-10.25559 18.04653,-20.21681 27.47024,-24.64284 4.07959,-1.91607 15.10858,-5.16507 24.50886,-7.22001 18.69733,-4.08733 19.84622,-4.70153 39.33716,-21.02977 6.67857,-5.59487 16.19465,-12.09923 21.14685,-14.454119 8.81768,-4.193028 9.36454,-4.267451 26.42858,-3.596708 19.62397,0.771368 21.82203,1.473752 41.83448,13.368117 l 12.98133,7.71543 17.01867,0.005 c 19.2261,0.006 19.48182,0.10205 34.16152,12.82874 l 8.57143,7.43107 13.89798,-0.91016 c 17.9318,-1.17433 23.40002,0.31193 30.83873,8.38198 11.7401,12.73651 9.38053,34.83275 -4.60167,43.09223 -3.14181,1.85592 -8.88627,2.77615 -21.5838,3.4576 -9.5164,0.51072 -18.00543,1.36298 -18.86449,1.89391 -2.13064,1.31681 -2.92362,8.70619 -5.4238,50.541 -1.18355,19.80407 -2.95112,38.44693 -3.92794,41.42857 -1.60053,4.8854 -2.26323,5.42115 -6.70587,5.42115 -5.97129,0 -5.61654,1.28237 -10.56276,-38.18456 -2.30077,-18.35846 -4.48081,-30.12904 -6.37207,-34.40456 -5.33496,-12.06055 -18.88783,-18.81978 -40.93486,-20.41545 -11.44537,-0.82837 -11.50907,-0.81358 -25.75945,5.9814 -22.87358,10.90675 -26.44965,10.69039 -63.20156,-3.82383 -14.1238,-5.57783 -12.69734,-6.08852 -32.36161,11.5859 -11.47329,10.31229 -17.05376,14.11588 -29.63869,20.20144 -8.52725,4.12343 -15.80087,8.49157 -16.16359,9.70697 -0.70405,2.35906 -2.52259,23.69743 -5.18004,60.78126 -0.90087,12.57143 -2.22213,23.96741 -2.93612,25.3244 -1.88316,3.57908 -5.78268,5.2224 -9.26685,3.90517 z"
       id="path7228"
       inkscape:connector-curvature="0"
       transform="matrix(0.26458333,0,0,0.26458333,0,87)" />
    <path
       style="fill:#ffffff;fill-opacity:0.99607843;stroke:#ffffff;stroke-width:1.42857146;stroke-opacity:1"
       d="m 125.13162,329.01458 c -2.44781,-2.44781 -2.69458,-7.29146 -3.62093,-71.07143 -0.81984,-56.4462 -0.64637,-69.594 0.98953,-75.00134 4.41689,-14.59964 22.99967,-35.60526 37.28357,-42.14465 4.26095,-1.95072 15.0305,-5.16994 23.93235,-7.15381 17.6796,-3.9401 20.98966,-5.73234 41.607,-22.5282 6.12487,-4.9896 14.61999,-10.83468 18.87805,-12.989067 7.45553,-3.77215 8.41762,-3.897648 26.00675,-3.392366 20.38298,0.585542 24.4428,1.899007 45.63203,14.763293 l 10.56415,6.41366 16.1075,-0.30042 c 18.40198,-0.34321 20.46635,0.43448 35.22231,13.26881 l 8.18998,7.12343 15.56013,-0.89097 c 14.64284,-0.83844 15.9391,-0.68675 21.9887,2.57323 13.84383,7.46009 18.98449,25.76073 11.22183,39.94948 -5.12243,9.36287 -11.83193,12.10857 -32.62112,13.34937 -12.51665,0.74706 -17.20542,1.54113 -17.7688,3.00926 -0.86465,2.25326 -3.07548,29.82745 -4.4503,55.50569 -1.15352,21.54486 -3.12284,36.36617 -5.1578,38.81815 -0.86551,1.04287 -3.43943,1.89614 -5.71981,1.89614 -5.40039,0 -5.98022,-1.69816 -9.02383,-26.42857 -3.3936,-27.574 -6.17973,-43.13949 -8.52519,-47.62838 -5.4793,-10.4866 -17.03132,-16.50612 -36.13425,-18.82881 -12.6143,-1.53375 -13.36207,-1.46226 -21.72803,2.07724 -4.76527,2.01611 -12.62333,5.33958 -17.46236,7.38548 -12.79483,5.40956 -22.65717,4.48562 -44.5378,-4.17246 -9.29911,-3.67962 -18.62054,-6.68824 -20.71429,-6.68582 -2.76047,0.003 -8.0572,3.71486 -19.27044,13.50368 -11.71699,10.22859 -19.22271,15.42211 -30.97874,21.43547 -8.71985,4.46031 -15.82952,9.02618 -16.23295,10.42488 -0.3948,1.3688 -1.40984,12.13157 -2.25566,23.91729 -3.90959,54.47673 -4.67299,61.03253 -7.42782,63.78736 -3.34406,3.34405 -6.21976,3.34838 -9.55376,0.0144 z"
       id="path7230"
       inkscape:connector-curvature="0"
       transform="matrix(0.26458333,0,0,0.26458333,0,87)" />
    <path
       style="fill:#ffffff;fill-opacity:0.99607843;stroke:#ffffff;stroke-width:1.42857146;stroke-opacity:1"
       d="m 124.18443,328.26651 c -1.88564,-2.87784 -2.34537,-13.59761 -3.12149,-72.78544 l -0.91017,-69.41054 4.46406,-9.00027 c 5.74682,-11.58653 14.89063,-22.59513 25.12752,-30.252 8.19318,-6.12824 18.69299,-10.21047 36.97313,-14.37479 12.87404,-2.93279 19.07843,-6.28419 34.50856,-18.64036 7.12854,-5.7084 16.54868,-12.38719 20.93364,-14.841738 7.71426,-4.318187 8.53722,-4.462822 25.39283,-4.462822 20.7513,0 27.09219,1.824493 45.62456,13.12777 l 12.43853,7.58652 17.14285,0.0144 c 19.36772,0.0163 19.12069,-0.0721 33.52686,11.99386 l 9.94932,8.33307 16.11905,-0.60843 c 14.88366,-0.56181 16.55377,-0.35425 21.7911,2.70821 15.40603,9.00846 19.18467,30.55904 7.7834,44.39075 -5.21598,6.3279 -9.99635,7.79627 -30.62173,9.40599 -9.41984,0.73518 -15.67571,1.86759 -16.3507,2.95973 -1.2363,2.00039 -2.16231,12.4014 -4.39577,49.37381 -1.76064,29.14533 -3.37095,41.52918 -5.77721,44.42855 -2.36255,2.84669 -9.50049,2.5256 -11.11492,-0.49998 -0.73368,-1.375 -2.73965,-13.42857 -4.45771,-26.78572 -6.48179,-50.39295 -8.99954,-54.96236 -33.85112,-61.43537 -15.10271,-3.93376 -24.4447,-2.95798 -41.09604,4.29252 -18.11759,7.88894 -27.17546,8.46442 -42.9331,2.72772 -31.86749,-11.60164 -29.52327,-11.00798 -34.23746,-8.67045 -2.38368,1.18194 -9.47683,6.65868 -15.76254,12.17053 -11.29452,9.904 -16.4471,13.35024 -35.43581,23.70087 -5.51672,3.00713 -10.22434,6.64014 -10.88404,8.39953 -0.63939,1.7052 -1.91763,14.02894 -2.84054,27.38608 -2.76431,40.00743 -4.53064,55.52943 -6.70577,58.92857 -2.73944,4.28099 -8.42206,4.20008 -11.27929,-0.16061 z"
       id="path7232"
       inkscape:connector-curvature="0"
       transform="matrix(0.26458333,0,0,0.26458333,0,87)" />
    <path
       style="fill:#ffffff;fill-opacity:0.99607843;stroke:#000000;stroke-width:1.42857146;stroke-opacity:0"
       d="m 123.91874,327.86102 c -2.24299,-3.42324 -2.53251,-10.35654 -3.06448,-73.38777 l -0.58748,-69.60739 5.47453,-10.41805 c 6.83073,-12.99889 21.27929,-27.98025 32.08289,-33.26596 4.33158,-2.11925 14.56681,-5.50466 22.74494,-7.52313 17.85637,-4.4072 24.52779,-7.64305 38.61788,-18.7309 13.33375,-10.49267 23.06588,-17.179777 27.39192,-18.821453 6.36466,-2.415311 19.36427,-3.111065 31.77634,-1.700708 13.49553,1.533466 22.62926,5.032312 37.26269,14.274161 l 8.72373,5.50953 17.77981,0.5592 c 20.08087,0.63157 21.54869,1.15788 34.86083,12.49982 l 8.5096,7.25018 h 17.35057 c 15.66113,0 17.81804,0.31503 22.1516,3.23542 14.83567,9.99776 18.38623,31.02352 7.43633,44.03673 -4.83987,5.75186 -10.25909,8.0073 -21.87624,9.10474 -24.51883,2.31622 -24.3254,2.27443 -25.56023,5.52225 -0.64877,1.70642 -1.92449,14.67363 -2.83492,28.81601 -2.38091,36.98474 -4.45892,58.15311 -5.98937,61.01277 -3.24657,6.06627 -11.3799,6.10255 -13.297,0.0593 -0.43647,-1.3758 -2.36627,-13.75148 -4.28847,-27.50148 -6.46916,-46.27555 -8.76476,-50.98801 -27.94984,-57.37612 -14.04136,-4.6754 -27.72923,-4.76552 -38.85843,-0.25586 -4.95962,2.00969 -12.23177,4.93575 -16.16034,6.50236 -11.64721,4.6446 -21.34089,3.78394 -42.59334,-3.78167 -10.06919,-3.58451 -19.80907,-6.51729 -21.64417,-6.51729 -3.20929,0 -10.89362,5.38423 -28.131,19.71073 -4.44554,3.69481 -13.91691,9.86961 -21.04749,13.72176 -7.13059,3.85216 -13.99601,8.14351 -15.25651,9.53634 -1.78951,1.97739 -2.88,10.14827 -4.97564,37.28179 -3.24093,41.96229 -3.84581,46.6944 -6.49611,50.82081 -2.86647,4.46296 -8.43627,4.19003 -11.5526,-0.5661 z"
       id="path7234"
       inkscape:connector-curvature="0"
       transform="matrix(0.26458333,0,0,0.26458333,0,87)" />
    <ellipse
       style="fill:#ffcc00;fill-opacity:0.99607843;stroke:#000000;stroke-width:2.565;stroke-miterlimit:4;stroke-dasharray:none;stroke-opacity:1"
       id="path7238"
       cx="16.819941"
       cy="182.09523"
       rx="5.1026788"
       ry="5.2916665" />
  </g>
</svg>
